<svg width="48" height="49" viewBox="0 0 48 49" fill="none" xmlns="http://www.w3.org/2000/svg">
<path d="M43 11.3666C43 10.6589 42.699 9.98014 42.1632 9.4797C41.6273 8.97926 40.9006 8.69812 40.1429 8.69812H5.85714C5.09938 8.69812 4.37266 8.97926 3.83684 9.4797C3.30102 9.98014 3 10.6589 3 11.3666L3 13.6981H43V11.3666Z" fill="#333333"/>
<path d="M26.8367 24.6074C26.8378 23.6321 27.2252 22.697 27.9139 22.0073C28.6025 21.3177 29.5363 20.9297 30.5102 20.9287C31.6366 20.9306 32.7355 20.5799 33.6531 19.9256L34.9143 19.0263C35.5357 18.5844 36.279 18.347 37.0412 18.347C37.8034 18.347 38.5467 18.5844 39.1682 19.0263L40.4286 19.9256C41.1873 20.4677 42.0731 20.804 43 20.9017V16.6981H3V33.8369C3 34.5957 3.30102 35.3235 3.83684 35.8601C4.37266 36.3967 5.09938 36.6981 5.85714 36.6981H28.5094C27.4086 34.6839 26.8333 32.424 26.8367 30.1279V24.6074ZM8.59102 22.4394H9.39102C9.55182 22.4394 9.71105 22.4711 9.85961 22.5327C10.0082 22.5943 10.1432 22.6847 10.2569 22.7985C10.3706 22.9124 10.4608 23.0476 10.5223 23.1964C10.5838 23.3451 10.6155 23.5046 10.6155 23.6656C10.6155 23.8267 10.5838 23.9861 10.5223 24.1349C10.4608 24.2837 10.3706 24.4188 10.2569 24.5327C10.1432 24.6466 10.0082 24.7369 9.85961 24.7985C9.71105 24.8601 9.55182 24.8919 9.39102 24.8919H8.59102C8.43022 24.8919 8.27099 24.8601 8.12243 24.7985C7.97387 24.7369 7.83888 24.6466 7.72517 24.5327C7.61147 24.4188 7.52128 24.2837 7.45974 24.1349C7.3982 23.9861 7.36653 23.8267 7.36653 23.6656C7.36653 23.5046 7.3982 23.3451 7.45974 23.1964C7.52128 23.0476 7.61147 22.9124 7.72517 22.7985C7.83888 22.6847 7.97387 22.5943 8.12243 22.5327C8.27099 22.4711 8.43022 22.4394 8.59102 22.4394ZM19.0702 30.1394H8.59102C8.26627 30.1394 7.95481 30.0102 7.72518 29.7802C7.49554 29.5502 7.36653 29.2383 7.36653 28.9131C7.36653 28.5879 7.49554 28.276 7.72518 28.046C7.95481 27.8161 8.26627 27.6869 8.59102 27.6869H19.0702C19.395 27.6869 19.7064 27.8161 19.936 28.046C20.1657 28.276 20.2947 28.5879 20.2947 28.9131C20.2947 29.2383 20.1657 29.5502 19.936 29.7802C19.7064 30.0102 19.395 30.1394 19.0702 30.1394ZM19.0702 24.8919H14.1943C13.8695 24.8919 13.5581 24.7627 13.3284 24.5327C13.0988 24.3027 12.9698 23.9908 12.9698 23.6656C12.9698 23.3404 13.0988 23.0285 13.3284 22.7985C13.5581 22.5686 13.8695 22.4394 14.1943 22.4394H19.0702C19.395 22.4394 19.7064 22.5686 19.936 22.7985C20.1657 23.0285 20.2947 23.3404 20.2947 23.6656C20.2947 23.9908 20.1657 24.3027 19.936 24.5327C19.7064 24.7627 19.395 24.8919 19.0702 24.8919Z" fill="#333333"/>
<path d="M43.7368 23.2837C42.0508 23.2865 40.4061 22.7766 39.0328 21.8254L37.7309 20.9247C37.5173 20.7773 37.2619 20.6981 37 20.6981C36.7381 20.6981 36.4827 20.7773 36.2691 20.9247L34.9672 21.8254C33.5939 22.7766 31.9492 23.2865 30.2632 23.2837C29.9281 23.2837 29.6069 23.4131 29.37 23.6435C29.1331 23.8738 29 24.1862 29 24.512V30.0416C28.9999 32.3443 29.724 34.5919 31.0753 36.4829C32.4265 38.374 34.3402 39.8179 36.5596 40.621C36.8437 40.7238 37.1563 40.7238 37.4404 40.621C39.6598 39.8179 41.5735 38.374 42.9247 36.4829C44.276 34.5919 45.0001 32.3443 45 30.0416V24.512C45 24.1862 44.8669 23.8738 44.63 23.6435C44.3931 23.4131 44.0719 23.2837 43.7368 23.2837ZM40.4745 29.8222L37.4143 33.1999C37.2958 33.3307 37.1499 33.4355 36.9865 33.5073C36.8231 33.5791 36.6458 33.6162 36.4665 33.6162C36.2872 33.6162 36.1099 33.5791 35.9465 33.5073C35.7831 33.4355 35.6373 33.3307 35.5187 33.1999L33.5255 31.0005C33.4158 30.8794 33.3318 30.7385 33.2781 30.5858C33.2245 30.4332 33.2023 30.2717 33.2128 30.1107C33.234 29.7856 33.3873 29.4819 33.6387 29.2666C33.8902 29.0513 34.2194 28.9419 34.5538 28.9626C34.8882 28.9832 35.2005 29.1322 35.4219 29.3767L36.4661 30.5297L38.5781 28.1984C38.7995 27.9539 39.1118 27.8049 39.4462 27.7842C39.7806 27.7636 40.1098 27.873 40.3613 28.0883C40.6127 28.3036 40.766 28.6072 40.7872 28.9324C40.8084 29.2576 40.696 29.5776 40.4745 29.8222Z" fill="#333333"/>
</svg>
