<svg width="44" height="44" viewBox="0 0 44 44" fill="none" xmlns="http://www.w3.org/2000/svg">
<rect width="44" height="44" rx="22" fill="#F0C244"/>
<g clip-path="url(#clip0_1_428)">
<path d="M29.1849 19.0413C28.3099 15.1913 24.9515 13.458 22.0015 13.458C22.0015 13.458 22.0015 13.458 21.9932 13.458C19.0515 13.458 15.6849 15.183 14.8099 19.033C13.8349 23.333 16.4682 26.9747 18.8515 29.2663C19.7349 30.1163 20.8682 30.5413 22.0015 30.5413C23.1349 30.5413 24.2682 30.1163 25.1432 29.2663C27.5265 26.9747 30.1599 23.3413 29.1849 19.0413ZM22.0015 23.2163C20.5515 23.2163 19.3765 22.0413 19.3765 20.5913C19.3765 19.1413 20.5515 17.9663 22.0015 17.9663C23.4515 17.9663 24.6265 19.1413 24.6265 20.5913C24.6265 22.0413 23.4515 23.2163 22.0015 23.2163Z" fill="#333333"/>
</g>
<defs>
<clipPath id="clip0_1_428">
<rect width="20" height="20" fill="white" transform="translate(12 12)"/>
</clipPath>
</defs>
</svg>
