<svg width="150" height="150" viewBox="0 0 150 150" fill="none" xmlns="http://www.w3.org/2000/svg">
<g filter="url(#filter0_d_2170_133)">
<rect x="20" width="110" height="110" rx="20" fill="white"/>
</g>
<path d="M96.5736 52.3463C96.474 52.2019 96.3335 52.0906 96.1702 52.0266C96.0069 51.9626 95.8282 51.9488 95.657 51.9869C95.4858 52.0251 95.3299 52.1135 95.2093 52.2409C95.0887 52.3682 95.0089 52.5287 94.98 52.7017C94.6737 54.7174 93.9326 56.6422 92.808 58.3428C91.6834 60.0434 90.2024 61.479 88.4675 62.55C88.3086 62.6519 88.1867 62.8022 88.1197 62.9787C88.0528 63.1552 88.0443 63.3485 88.0957 63.5302C88.147 63.7118 88.2553 63.8722 88.4048 63.9876C88.5542 64.1029 88.7367 64.1672 88.9255 64.1709C92.52 62.5398 95.1392 58.7334 96.2591 55.0288L96.7624 55.7841C96.8932 55.9722 97.0925 56.1015 97.3176 56.1442C97.5427 56.1869 97.7756 56.1397 97.9662 56.0126C98.1568 55.8855 98.29 55.6887 98.3372 55.4645C98.3843 55.2403 98.3417 55.0066 98.2184 54.8135L96.5736 52.3463Z" fill="#F0C244"/>
<path d="M65.6916 48.9089C65.7901 49.0556 65.9307 49.1691 66.0949 49.2344C66.2591 49.2997 66.4393 49.3138 66.6116 49.2748C66.784 49.2357 66.9405 49.1455 67.0606 49.0158C67.1806 48.8861 67.2587 48.7231 67.2843 48.5483C67.6774 45.9496 68.7928 43.5136 70.5032 41.518C72.2136 39.5225 74.4502 38.0476 76.9582 37.2615C77.1753 37.1892 77.3555 37.0347 77.46 36.8311C77.5646 36.6275 77.5852 36.3911 77.5175 36.1725C77.4497 35.9539 77.2991 35.7705 77.0977 35.6617C76.8964 35.5528 76.6605 35.5272 76.4405 35.5903C73.9599 36.3676 71.7093 37.7449 69.8881 39.5999C68.067 41.4549 66.7315 43.7305 66.0001 46.2251L65.4917 45.4668C65.3603 45.2789 65.1605 45.15 64.9352 45.1078C64.7098 45.0656 64.4769 45.1135 64.2865 45.2411C64.0961 45.3688 63.9633 45.566 63.9167 45.7905C63.8701 46.015 63.9134 46.2488 64.0374 46.4417L65.6916 48.9089Z" fill="#F0C244"/>
<path d="M88.9994 51.5007C91.076 51.5007 93.1059 50.885 94.8325 49.7313C96.5591 48.5776 97.9049 46.9378 98.6996 45.0193C99.4942 43.1008 99.7022 40.9897 99.297 38.953C98.8919 36.9163 97.8919 35.0455 96.4236 33.5772C94.9552 32.1088 93.0844 31.1088 91.0477 30.7037C89.011 30.2986 86.9 30.5065 84.9814 31.3012C83.0629 32.0958 81.4232 33.4416 80.2695 35.1682C79.1158 36.8948 78.5 38.9248 78.5 41.0013C78.5022 43.7853 79.6091 46.4546 81.5776 48.4231C83.5462 50.3916 86.2155 51.4985 88.9994 51.5007ZM86.6633 41.8763C86.1232 41.8743 85.6059 41.6588 85.224 41.277C84.8421 40.8951 84.6267 40.3777 84.6246 39.8376V37.5016C84.6252 36.961 84.8401 36.4428 85.2223 36.0606C85.6045 35.6784 86.1228 35.4634 86.6633 35.4629H88.1244V34.588C88.1244 34.3559 88.2166 34.1334 88.3807 33.9693C88.5448 33.8052 88.7673 33.713 88.9994 33.713C89.2314 33.713 89.454 33.8052 89.6181 33.9693C89.7822 34.1334 89.8743 34.3559 89.8743 34.588V35.4629H91.3355C91.876 35.4634 92.3942 35.6784 92.7764 36.0606C93.1586 36.4428 93.3736 36.961 93.3741 37.5016C93.3741 37.7336 93.2819 37.9562 93.1179 38.1202C92.9538 38.2843 92.7312 38.3765 92.4992 38.3765C92.2671 38.3765 92.0446 38.2843 91.8805 38.1202C91.7164 37.9562 91.6242 37.7336 91.6242 37.5016C91.6235 37.4252 91.5929 37.3521 91.5389 37.2981C91.4849 37.2441 91.4118 37.2135 91.3355 37.2128H89.8743V40.1264H91.3355C91.8755 40.1284 92.3929 40.3438 92.7748 40.7257C93.1566 41.1076 93.3721 41.6249 93.3741 42.165V44.5011C93.3736 45.0416 93.1586 45.5598 92.7764 45.942C92.3942 46.3242 91.876 46.5392 91.3355 46.5397H89.8743V47.4146C89.8743 47.6467 89.7822 47.8692 89.6181 48.0333C89.454 48.1974 89.2314 48.2896 88.9994 48.2896C88.7673 48.2896 88.5448 48.1974 88.3807 48.0333C88.2166 47.8692 88.1244 47.6467 88.1244 47.4146V46.5397H86.6633C86.1228 46.5392 85.6046 46.3242 85.2224 45.942C84.8402 45.5599 84.6252 45.0416 84.6246 44.5011C84.6246 44.2691 84.7168 44.0465 84.8809 43.8825C85.045 43.7184 85.2675 43.6262 85.4996 43.6262C85.7316 43.6262 85.9542 43.7184 86.1183 43.8825C86.2824 44.0465 86.3745 44.2691 86.3745 44.5011C86.3752 44.5775 86.4059 44.6506 86.4599 44.7045C86.5139 44.7585 86.5869 44.7892 86.6633 44.7898H88.1244V41.8763H86.6633Z" fill="#F0C244"/>
<path d="M88.1249 37.2139H86.6637C86.5874 37.2146 86.5143 37.2452 86.4603 37.2992C86.4063 37.3532 86.3757 37.4262 86.375 37.5026V39.8387C86.3757 39.9151 86.4063 39.9881 86.4603 40.0421C86.5143 40.0961 86.5874 40.1268 86.6637 40.1275H88.1249V37.2139Z" fill="#F0C244"/>
<path d="M91.6249 44.5021V42.1659C91.6242 42.0895 91.5936 42.0165 91.5396 41.9625C91.4856 41.9085 91.4125 41.8779 91.3361 41.8772H89.875V44.7907H91.3361C91.4125 44.7901 91.4856 44.7595 91.5396 44.7055C91.5936 44.6515 91.6242 44.5784 91.6249 44.5021Z" fill="#F0C244"/>
<path d="M62.6976 73.8633L61.8672 75.6124H75.9101L75.1401 73.8633H62.6976Z" fill="#F0C244"/>
<path d="M83.121 61.412H84.6171C85.14 61.4061 85.6394 61.1943 86.0071 60.8224C86.3747 60.4506 86.5809 59.9488 86.5809 59.4259C86.5809 58.903 86.3747 58.4012 86.007 58.0294C85.6394 57.6575 85.1399 57.4457 84.6171 57.4398H82.386C81.9514 57.4396 81.5228 57.5415 81.1348 57.7373C80.5661 56.3111 79.9099 54.6399 79.4199 53.3713C79.1588 52.7399 78.7156 52.2006 78.1469 51.8219C77.5782 51.4433 76.9096 51.2425 76.2264 51.2451H61.5272C60.8396 51.2435 60.1673 51.4476 59.5966 51.8312C59.026 52.2148 58.5831 52.7603 58.3249 53.3975C57.8349 54.6487 57.1875 56.3199 56.6188 57.7373C56.2308 57.5415 55.8022 57.4396 55.3676 57.4398H53.1365C52.6136 57.4457 52.1142 57.6576 51.7465 58.0294C51.3789 58.4012 51.1727 58.9031 51.1727 59.426C51.1727 59.9488 51.3789 60.4507 51.7466 60.8225C52.1142 61.1943 52.6137 61.4061 53.1365 61.412H54.6326C53.4847 62.7604 50.3934 64.2153 50.5028 66.5129L50.5029 72.1389C50.5057 73.0578 50.8713 73.9384 51.5203 74.5889C52.1692 75.2395 53.0488 75.6074 53.9677 75.6125H59.9261L61.3523 72.6114C61.4235 72.4628 61.5351 72.3371 61.6743 72.2489C61.8136 72.1607 61.9748 72.1135 62.1397 72.1127H75.7101C75.8785 72.1128 76.0432 72.1616 76.1845 72.2532C76.3257 72.3448 76.4375 72.4752 76.5063 72.6289L77.8187 75.6125C78.5387 75.5548 84.2736 75.7673 84.8534 75.4463C85.5492 75.2159 86.1551 74.7727 86.5853 74.1791C87.0155 73.5856 87.2483 72.8719 87.2507 72.1389V66.513C87.2518 66.0485 87.1541 65.589 86.964 65.1651C86.7739 64.7412 86.4959 64.3626 86.1483 64.0544C85.0809 63.1707 83.8822 62.1295 83.121 61.412ZM56.0938 67.5192H53.5827C53.3534 67.5151 53.1348 67.4211 52.9741 67.2575C52.8133 67.0938 52.7233 66.8736 52.7233 66.6442C52.7233 66.4149 52.8134 66.1947 52.9741 66.031C53.1349 65.8674 53.3534 65.7734 53.5828 65.7693H56.0938C56.3236 65.7727 56.5429 65.8664 56.7042 66.0301C56.8655 66.1938 56.9559 66.4144 56.9559 66.6443C56.9559 66.8741 56.8655 67.0947 56.7042 67.2584C56.5429 67.4221 56.3236 67.5158 56.0938 67.5192ZM78.1687 67.5192H59.5936C59.3616 67.5192 59.139 67.427 58.9749 67.2629C58.8108 67.0989 58.7187 66.8763 58.7187 66.6443C58.7187 66.4122 58.8108 66.1897 58.9749 66.0256C59.139 65.8615 59.3616 65.7693 59.5936 65.7693H78.1687C78.3984 65.7729 78.6175 65.8666 78.7787 66.0303C78.9399 66.194 79.0302 66.4145 79.0302 66.6443C79.0302 66.874 78.9399 67.0945 78.7787 67.2582C78.6175 67.4219 78.3984 67.5156 78.1687 67.5192ZM57.1787 60.9659C57.1875 60.9571 59.6549 54.7887 59.9435 54.045C60.0749 53.7336 60.2953 53.4679 60.577 53.2811C60.8587 53.0943 61.1892 52.9948 61.5272 52.995H76.2264C76.5612 52.9938 76.889 53.0911 77.169 53.2746C77.449 53.4582 77.6689 53.72 77.8013 54.0275C78.0813 54.7537 80.5661 60.9571 80.5748 60.9659L57.1787 60.9659ZM84.1709 67.5192H81.6685C81.4392 67.5151 81.2206 67.4211 81.0599 67.2575C80.8992 67.0938 80.8091 66.8736 80.8091 66.6442C80.8091 66.4149 80.8992 66.1947 81.0599 66.031C81.2207 65.8674 81.4393 65.7734 81.6686 65.7693H84.1709C84.4007 65.7727 84.6199 65.8664 84.7812 66.0301C84.9425 66.1938 85.0329 66.4144 85.0329 66.6443C85.0329 66.8741 84.9425 67.0947 84.7812 67.2584C84.6199 67.4221 84.4007 67.5158 84.1709 67.5192Z" fill="#F0C244"/>
<path d="M52.39 77.1174C51.9575 76.9703 51.5435 76.7736 51.1563 76.5312V77.3274C51.1562 77.6124 51.2123 77.8946 51.3213 78.1579C51.4303 78.4212 51.5902 78.6604 51.7917 78.8619C51.9932 79.0634 52.2324 79.2232 52.4957 79.3323C52.759 79.4413 53.0411 79.4974 53.3261 79.4973H56.3447C56.9143 79.4979 57.4613 79.2743 57.8673 78.8748C58.2734 78.4753 58.5059 77.932 58.5146 77.3625C57.3098 77.2981 53.4952 77.5555 52.39 77.1174Z" fill="#F0C244"/>
<path d="M79.25 77.3625C79.2587 77.932 79.4912 78.4753 79.8973 78.8748C80.3033 79.2743 80.8503 79.4979 81.4199 79.4973H84.4384C84.7234 79.4974 85.0056 79.4413 85.2689 79.3323C85.5322 79.2232 85.7714 79.0634 85.9729 78.8619C86.1744 78.6604 86.3342 78.4212 86.4433 78.1579C86.5523 77.8946 86.6084 77.6124 86.6083 77.3274V76.5312C85.7687 77.0736 84.7905 77.3623 83.791 77.3625L79.25 77.3625Z" fill="#F0C244"/>
<defs>
<filter id="filter0_d_2170_133" x="0" y="0" width="150" height="150" filterUnits="userSpaceOnUse" color-interpolation-filters="sRGB">
<feFlood flood-opacity="0" result="BackgroundImageFix"/>
<feColorMatrix in="SourceAlpha" type="matrix" values="0 0 0 0 0 0 0 0 0 0 0 0 0 0 0 0 0 0 127 0" result="hardAlpha"/>
<feOffset dy="20"/>
<feGaussianBlur stdDeviation="10"/>
<feColorMatrix type="matrix" values="0 0 0 0 0 0 0 0 0 0 0 0 0 0 0 0 0 0 0.06 0"/>
<feBlend mode="normal" in2="BackgroundImageFix" result="effect1_dropShadow_2170_133"/>
<feBlend mode="normal" in="SourceGraphic" in2="effect1_dropShadow_2170_133" result="shape"/>
</filter>
</defs>
</svg>
