<svg width="48" height="48" viewBox="0 0 48 48" fill="none" xmlns="http://www.w3.org/2000/svg">
<path d="M31.1094 18.2286C24.0015 18.2286 18.2188 24.0114 18.2188 31.1193C18.2188 38.2272 24.0015 44.0099 31.1094 44.0099C38.2173 44.0099 44 38.2272 44 31.1193C44 24.0114 38.2173 18.2286 31.1094 18.2286ZM31.1094 29.9474C33.048 29.9474 34.625 31.5244 34.625 33.463C34.625 34.9888 33.6423 36.2774 32.2812 36.7628V39.3224H29.9375V36.7628C28.5764 36.2774 27.5938 34.9888 27.5938 33.463H29.9375C29.9375 34.1096 30.4628 34.6349 31.1094 34.6349C31.7559 34.6349 32.2812 34.1096 32.2812 33.463C32.2812 32.8165 31.7559 32.2911 31.1094 32.2911C29.1708 32.2911 27.5938 30.7141 27.5938 28.7755C27.5938 27.2497 28.5764 25.9611 29.9375 25.4757V22.9161H32.2812V25.4757C33.6423 25.9611 34.625 27.2497 34.625 28.7755H32.2812C32.2812 28.129 31.7559 27.6036 31.1094 27.6036C30.4628 27.6036 29.9375 28.129 29.9375 28.7755C29.9375 29.4221 30.4628 29.9474 31.1094 29.9474Z" fill="#333333"/>
<path d="M17.0469 18.2286C24.275 18.2286 29.9375 15.1399 29.9375 11.1974C29.9375 7.25489 24.275 4.00989 17.0469 4.00989C9.81875 4.00989 4 7.25489 4 11.1974C4 15.1399 9.81875 18.2286 17.0469 18.2286Z" fill="#333333"/>
<path d="M4 30.382V32.2914C4 36.2339 9.81875 39.3227 17.0469 39.3227C17.4569 39.3227 17.8541 39.2849 18.2578 39.2652C17.3589 37.8518 16.6885 36.2835 16.2937 34.607C11.0668 34.4627 6.52828 32.8565 4 30.382Z" fill="#333333"/>
<path d="M15.9313 32.2317C15.9045 31.8631 15.875 31.4949 15.875 31.1195C15.875 29.8979 16.0351 28.7156 16.308 27.5763C11.0746 27.4345 6.53055 25.8275 4 23.3507V25.2602C4 28.9935 9.25484 31.9275 15.9313 32.2317Z" fill="#333333"/>
<path d="M17.0469 25.2602C17.0481 25.2602 17.0491 25.26 17.0505 25.26C17.8234 23.4128 18.9469 21.7477 20.3421 20.3525C19.2838 20.4863 18.19 20.5727 17.0469 20.5727C11.483 20.5727 6.65047 18.9135 4 16.3195V18.2289C4 22.1714 9.81875 25.2602 17.0469 25.2602Z" fill="#333333"/>
</svg>
