<svg width="44" height="44" viewBox="0 0 44 44" fill="none" xmlns="http://www.w3.org/2000/svg">
<rect width="44" height="44" rx="22" fill="#F0C244"/>
<path d="M26.1719 14.917H17.8385C15.3385 14.917 13.6719 16.167 13.6719 19.0837V24.917C13.6719 27.8337 15.3385 29.0837 17.8385 29.0837H26.1719C28.6719 29.0837 30.3385 27.8337 30.3385 24.917V19.0837C30.3385 16.167 28.6719 14.917 26.1719 14.917ZM26.5635 19.992L23.9552 22.0753C23.4052 22.517 22.7052 22.7337 22.0052 22.7337C21.3052 22.7337 20.5969 22.517 20.0552 22.0753L17.4469 19.992C17.1802 19.7753 17.1385 19.3753 17.3469 19.1087C17.5635 18.842 17.9552 18.792 18.2219 19.0087L20.8302 21.092C21.4635 21.6003 22.5385 21.6003 23.1719 21.092L25.7802 19.0087C26.0469 18.792 26.4469 18.8337 26.6552 19.1087C26.8719 19.3753 26.8302 19.7753 26.5635 19.992Z" fill="#333333"/>
</svg>
