<svg width="1440" height="802" viewBox="0 0 1440 802" fill="none" xmlns="http://www.w3.org/2000/svg">
<g filter="url(#filter0_f_1_4)">
<circle cx="720" cy="-60" r="100" fill="#F0C244"/>
</g>
<path opacity="0.08" fill-rule="evenodd" clip-rule="evenodd" d="M0 0H737V644H0V0ZM1.15156 1.15H90.9734V90.85H1.15156V1.15ZM93.2766 1.15H183.098V90.85H93.2766V1.15ZM275.223 1.15H185.402V90.85H275.223V1.15ZM277.527 1.15H367.348V90.85H277.527V1.15ZM459.473 1.15H369.652V90.85H459.473V1.15ZM461.777 1.15H551.598V90.85H461.777V1.15ZM643.723 1.15H553.902V90.85H643.723V1.15ZM646.027 1.15H735.848V90.85H646.027V1.15ZM90.9734 93.15H1.15156V182.85H90.9734V93.15ZM93.2766 93.15H183.098V182.85H93.2766V93.15ZM275.223 93.15H185.402V182.85H275.223V93.15ZM277.527 93.15H367.348V182.85H277.527V93.15ZM459.473 93.15H369.652V182.85H459.473V93.15ZM461.777 93.15H551.598V182.85H461.777V93.15ZM643.723 93.15H553.902V182.85H643.723V93.15ZM646.027 93.15H735.848V182.85H646.027V93.15ZM90.9734 185.15H1.15156V274.85H90.9734V185.15ZM93.2766 185.15H183.098V274.85H93.2766V185.15ZM275.223 185.15H185.402V274.85H275.223V185.15ZM277.527 185.15H367.348V274.85H277.527V185.15ZM459.473 185.15H369.652V274.85H459.473V185.15ZM461.777 185.15H551.598V274.85H461.777V185.15ZM643.723 185.15H553.902V274.85H643.723V185.15ZM646.027 185.15H735.848V274.85H646.027V185.15ZM90.9734 277.15H1.15156V366.85H90.9734V277.15ZM93.2766 277.15H183.098V366.85H93.2766V277.15ZM275.223 277.15H185.402V366.85H275.223V277.15ZM277.527 277.15H367.348V366.85H277.527V277.15ZM459.473 277.15H369.652V366.85H459.473V277.15ZM461.777 277.15H551.598V366.85H461.777V277.15ZM643.723 277.15H553.902V366.85H643.723V277.15ZM646.027 277.15H735.848V366.85H646.027V277.15ZM90.9734 369.15H1.15156V458.85H90.9734V369.15ZM93.2766 369.15H183.098V458.85H93.2766V369.15ZM275.223 369.15H185.402V458.85H275.223V369.15ZM277.527 369.15H367.348V458.85H277.527V369.15ZM459.473 369.15H369.652V458.85H459.473V369.15ZM461.777 369.15H551.598V458.85H461.777V369.15ZM643.723 369.15H553.902V458.85H643.723V369.15ZM646.027 369.15H735.848V458.85H646.027V369.15ZM90.9734 461.15H1.15156V550.85H90.9734V461.15ZM93.2766 461.15H183.098V550.85H93.2766V461.15ZM275.223 461.15H185.402V550.85H275.223V461.15ZM277.527 461.15H367.348V550.85H277.527V461.15ZM459.473 461.15H369.652V550.85H459.473V461.15ZM461.777 461.15H551.598V550.85H461.777V461.15ZM643.723 461.15H553.902V550.85H643.723V461.15ZM646.027 461.15H735.848V550.85H646.027V461.15ZM90.9734 553.15H1.15156V642.85H90.9734V553.15ZM93.2766 553.15H183.098V642.85H93.2766V553.15ZM275.223 553.15H185.402V642.85H275.223V553.15ZM277.527 553.15H367.348V642.85H277.527V553.15ZM459.473 553.15H369.652V642.85H459.473V553.15ZM461.777 553.15H551.598V642.85H461.777V553.15ZM643.723 553.15H553.902V642.85H643.723V553.15ZM646.027 553.15H735.848V642.85H646.027V553.15Z" fill="url(#paint0_linear_1_4)"/>
<defs>
<filter id="filter0_f_1_4" x="20" y="-760" width="1400" height="1400" filterUnits="userSpaceOnUse" color-interpolation-filters="sRGB">
<feFlood flood-opacity="0" result="BackgroundImageFix"/>
<feBlend mode="normal" in="SourceGraphic" in2="BackgroundImageFix" result="shape"/>
<feGaussianBlur stdDeviation="300" result="effect1_foregroundBlur_1_4"/>
</filter>
<linearGradient id="paint0_linear_1_4" x1="9.5" y1="13" x2="537" y2="534" gradientUnits="userSpaceOnUse">
<stop stop-color="#333333"/>
<stop offset="1" stop-color="#333333" stop-opacity="0"/>
</linearGradient>
</defs>
</svg>
