<?xml version="1.0" standalone="no"?>
<!DOCTYPE svg PUBLIC "-//W3C//DTD SVG 20010904//EN"
 "http://www.w3.org/TR/2001/REC-SVG-20010904/DTD/svg10.dtd">
<svg version="1.0" xmlns="http://www.w3.org/2000/svg"
 width="141.000000pt" height="125.000000pt" viewBox="0 0 141.000000 125.000000"
 preserveAspectRatio="xMidYMid meet">

<g transform="translate(0.000000,125.000000) scale(0.100000,-0.100000)"
fill="#000000" stroke="none">
<path d="M630 625 l0 -625 70 0 70 0 0 625 0 625 -70 0 -70 0 0 -625z"/>
<path d="M330 625 l0 -415 65 0 65 0 0 415 0 415 -65 0 -65 0 0 -415z"/>
<path d="M940 625 l0 -415 70 0 70 0 0 183 c0 100 -3 287 -7 415 l-6 232 -64
0 -63 0 0 -415z"/>
<path d="M20 625 l0 -175 70 0 70 0 0 175 0 175 -70 0 -70 0 0 -175z"/>
<path d="M1250 625 l0 -175 65 0 65 0 0 175 0 175 -65 0 -65 0 0 -175z"/>
</g>
</svg>
