<svg width="49" height="48" viewBox="0 0 49 48" fill="none" xmlns="http://www.w3.org/2000/svg">
<rect x="0.605682" width="48" height="48" rx="24" fill="#333333"/>
<g clip-path="url(#clip0_2170_440)">
<path d="M29.1811 19.041C28.9705 19.041 28.7991 19.2124 28.7991 19.4231C28.7991 19.6338 28.9705 19.8052 29.1811 19.8052C29.3918 19.8052 29.5632 19.6338 29.5632 19.4231C29.5632 19.2124 29.3918 19.041 29.1811 19.041Z" fill="white"/>
<path d="M24.6004 20.6113C22.7327 20.6113 21.2131 22.1309 21.2131 23.9986C21.2131 25.8664 22.7327 27.3859 24.6004 27.3859C26.4682 27.3859 27.9877 25.8664 27.9877 23.9987C27.9877 22.1309 26.4682 20.6113 24.6004 20.6113Z" fill="white"/>
<path d="M28.1604 16.1309H21.051C18.672 16.1309 16.7366 18.0663 16.7366 20.4453V27.5547C16.7366 29.9337 18.672 31.8691 21.051 31.8691H28.1604C30.5394 31.8691 32.4748 29.9337 32.4748 27.5547V20.4453C32.4748 18.0663 30.5394 16.1309 28.1604 16.1309ZM24.6057 28.3167C22.2254 28.3167 20.289 26.3802 20.289 24C20.289 21.6197 22.2255 19.6833 24.6057 19.6833C26.9859 19.6833 28.9224 21.6198 28.9224 24C28.9224 26.3802 26.9859 28.3167 24.6057 28.3167ZM29.1806 20.7366C28.4574 20.7366 27.8691 20.1483 27.8691 19.4251C27.8691 18.702 28.4574 18.1136 29.1806 18.1136C29.9037 18.1136 30.4921 18.7019 30.4921 19.4251C30.4921 20.1483 29.9037 20.7366 29.1806 20.7366Z" fill="white"/>
</g>
<defs>
<clipPath id="clip0_2170_440">
<rect width="15.7383" height="15.7383" fill="white" transform="translate(16.7366 16.1309)"/>
</clipPath>
</defs>
</svg>
