<svg width="62" height="873" viewBox="0 0 62 873" fill="none" xmlns="http://www.w3.org/2000/svg">
<path d="M9.45968 345.017L9.54032 344.02L9.45968 345.017ZM-156.147 176.425L-156.46 175.475L-156.147 176.425ZM-79.9495 422.981L-80.8694 422.589L-79.9495 422.981ZM-10.4725 872.186C-9.93678 872.32 -9.39363 871.995 -9.25933 871.459L-7.07082 862.729C-6.93651 862.193 -7.26193 861.65 -7.79763 861.516C-8.33337 861.382 -8.87652 861.707 -9.01078 862.243L-10.9561 870.003L-18.716 868.057C-19.2517 867.923 -19.7949 868.249 -19.9292 868.784C-20.0634 869.32 -19.7381 869.863 -19.2023 869.997L-10.4725 872.186ZM-18.7434 0.98692C-17.9423 2.78084 -17.135 4.60154 -16.3223 6.44775L-14.4918 5.64197C-15.3059 3.79254 -16.1146 1.96861 -16.9172 0.171375L-18.7434 0.98692ZM-11.4968 17.5653C-9.93681 21.2097 -8.36286 24.9353 -6.77986 28.7338L-4.93376 27.9645C-6.51921 24.1601 -8.09562 20.4286 -9.65821 16.7783L-11.4968 17.5653ZM-2.16622 39.9514C-0.664578 43.651 0.840909 47.408 2.34619 51.2156L4.20609 50.4802C2.69863 46.667 1.19088 42.9044 -0.313094 39.1992L-2.16622 39.9514ZM6.74825 62.4998C8.18451 66.2314 9.61695 70.0032 11.0419 73.8088L12.9149 73.1075C11.4878 69.296 10.0532 65.5187 8.61476 61.7814L6.74825 62.4998ZM15.236 85.1705C16.6107 88.9487 17.9748 92.7535 19.3252 96.5794L21.2111 95.9138C19.8586 92.0816 18.4923 88.2708 17.1155 84.4867L15.236 85.1705ZM23.3024 108.029C24.6057 111.843 25.8924 115.672 27.1593 119.511L29.0585 118.884C27.7894 115.039 26.5005 111.203 25.195 107.382L23.3024 108.029ZM30.8915 131.033C32.1161 134.887 33.3175 138.745 34.4927 142.602L36.4059 142.019C35.2283 138.154 34.0245 134.289 32.7976 130.427L30.8915 131.033ZM37.9502 154.211C39.0814 158.1 40.1825 161.983 41.2501 165.853L43.1781 165.321C42.1079 161.442 41.0043 157.55 39.8707 153.652L37.9502 154.211ZM44.381 177.541C45.4042 181.482 46.3887 185.404 47.3308 189.3L49.2748 188.83C48.3299 184.922 47.3427 180.99 46.3168 177.039L44.381 177.541ZM50.0706 201.103C50.9556 205.088 51.7911 209.039 52.573 212.948L54.5341 212.556C53.7493 208.632 52.9109 204.667 52.023 200.669L50.0706 201.103ZM54.8048 224.836C55.5105 228.87 56.1518 232.85 56.7241 236.768L58.7031 236.479C58.1279 232.541 57.4836 228.543 56.7749 224.491L54.8048 224.836ZM58.2766 248.747C58.7359 252.842 59.1087 256.853 59.3889 260.773L61.3838 260.63C61.1015 256.682 60.7262 252.643 60.2641 248.524L58.2766 248.747ZM59.9598 272.837C60.0481 276.998 60.0125 281.028 59.8449 284.913L61.843 284.999C62.0127 281.067 62.0485 276.994 61.9593 272.795L59.9598 272.837ZM58.836 296.923C58.2974 301.078 57.5672 305.011 56.6333 308.7L58.5722 309.191C59.5279 305.415 60.272 301.404 60.8194 297.18L58.836 296.923ZM52.795 319.963C51.0944 323.771 49.0748 327.176 46.7167 330.144L48.2828 331.388C50.7584 328.272 52.8614 324.719 54.6211 320.779L52.795 319.963ZM38.0839 338.055C34.8947 340.126 31.3083 341.708 27.2923 342.754L27.7964 344.689C32.0109 343.592 35.7962 341.925 39.1731 339.732L38.0839 338.055ZM15.6268 344.237C13.675 344.262 11.6469 344.191 9.54032 344.02L9.37903 346.014C11.5438 346.189 13.6344 346.263 15.6522 346.237L15.6268 344.237ZM9.54032 344.02C7.60393 343.864 5.67691 343.679 3.7596 343.466L3.53923 345.454C5.47608 345.669 7.42278 345.856 9.37903 346.014L9.54032 344.02ZM-7.69458 341.855C-11.5195 341.203 -15.3015 340.444 -19.0378 339.583L-19.4866 341.532C-15.7135 342.401 -11.894 343.168 -8.03073 343.827L-7.69458 341.855ZM-30.2356 336.67C-33.9609 335.589 -37.6356 334.41 -41.2567 333.14L-41.9185 335.027C-38.2636 336.309 -34.5541 337.499 -30.7931 338.591L-30.2356 336.67ZM-52.0727 329.018C-55.6613 327.54 -59.1909 325.975 -62.6582 324.331L-63.5151 326.138C-60.017 327.797 -56.4557 329.376 -52.8343 330.867L-52.0727 329.018ZM-72.9906 319.105C-76.4132 317.264 -79.767 315.348 -83.0486 313.366L-84.0826 315.078C-80.773 317.077 -77.3904 319.009 -73.9381 320.866L-72.9906 319.105ZM-92.8121 307.136C-96.0434 304.962 -99.1941 302.726 -102.261 300.439L-103.456 302.042C-100.364 304.349 -97.1872 306.603 -93.9287 308.796L-92.8121 307.136ZM-111.372 293.292C-114.386 290.808 -117.304 288.277 -120.121 285.712L-121.468 287.191C-118.626 289.778 -115.683 292.33 -112.644 294.835L-111.372 293.292ZM-128.477 277.714C-131.244 274.929 -133.892 272.116 -136.419 269.29L-137.91 270.623C-135.36 273.475 -132.687 276.313 -129.896 279.123L-128.477 277.714ZM-143.903 260.433C-146.368 257.34 -148.682 254.247 -150.838 251.169L-152.476 252.317C-150.295 255.429 -147.957 258.556 -145.466 261.679L-143.903 260.433ZM-157.119 241.514C-159.186 238.071 -161.039 234.672 -162.669 231.34L-164.466 232.22C-162.808 235.605 -160.928 239.054 -158.834 242.543L-157.119 241.514ZM-167.17 220.795C-168.559 216.946 -169.601 213.242 -170.281 209.726L-172.245 210.107C-171.542 213.737 -170.47 217.541 -169.052 221.473L-167.17 220.795ZM-171.178 198.414C-170.953 194.34 -170.047 190.718 -168.444 187.633L-170.219 186.711C-171.976 190.093 -172.937 194.002 -173.175 198.304L-171.178 198.414ZM-160.944 179.688C-159.426 178.774 -157.725 177.998 -155.834 177.375L-156.46 175.475C-158.482 176.141 -160.32 176.978 -161.975 177.974L-160.944 179.688ZM-155.834 177.375C-153.97 176.76 -152.041 176.253 -150.058 175.855L-150.452 173.894C-152.511 174.307 -154.517 174.835 -156.46 175.475L-155.834 177.375ZM-138.14 174.781C-134.25 174.829 -130.25 175.246 -126.2 176.043L-125.814 174.08C-129.978 173.261 -134.1 172.831 -138.115 172.781L-138.14 174.781ZM-114.626 179.331C-110.955 180.7 -107.292 182.382 -103.683 184.385L-102.713 182.636C-106.408 180.585 -110.162 178.861 -113.928 177.457L-114.626 179.331ZM-93.5847 190.965C-90.4591 193.325 -87.4117 195.952 -84.4755 198.85L-83.0705 197.427C-86.0692 194.467 -89.1832 191.783 -92.3793 189.369L-93.5847 190.965ZM-76.4198 207.869C-73.9985 210.941 -71.6921 214.236 -69.5244 217.758L-67.8212 216.71C-70.0289 213.123 -72.3796 209.764 -74.849 206.631L-76.4198 207.869ZM-63.7396 228.421C-62.062 231.947 -60.5126 235.657 -59.1086 239.554L-57.227 238.875C-58.6529 234.919 -60.2274 231.148 -61.9335 227.561L-63.7396 228.421ZM-55.5285 251.112C-54.5329 254.911 -53.6662 258.861 -52.9407 262.964L-50.9712 262.616C-51.706 258.461 -52.5842 254.458 -53.5938 250.605L-55.5285 251.112ZM-51.2734 274.995C-50.8739 278.912 -50.5958 282.952 -50.4478 287.115L-48.449 287.044C-48.5985 282.838 -48.8796 278.754 -49.2837 274.792L-51.2734 274.995ZM-50.3841 299.257C-50.4787 303.195 -50.6841 307.233 -51.0065 311.373L-49.0125 311.528C-48.6874 307.354 -48.4802 303.28 -48.3847 299.305L-50.3841 299.257ZM-52.246 323.436C-52.7431 327.351 -53.3405 331.35 -54.0429 335.433L-52.0718 335.772C-51.3646 331.661 -50.7628 327.633 -50.262 323.688L-52.246 323.436ZM-56.3468 347.365C-57.1774 351.252 -58.0997 355.21 -59.1171 359.24L-57.178 359.729C-56.1547 355.676 -55.2268 351.694 -54.391 347.783L-56.3468 347.365ZM-62.3168 371.055C-63.4115 374.845 -64.5876 378.695 -65.8479 382.605L-63.9444 383.219C-62.6779 379.29 -61.4958 375.42 -60.3954 371.61L-62.3168 371.055ZM-69.7446 394.123C-71.0844 397.908 -72.5008 401.745 -73.9959 405.636L-72.129 406.354C-70.6276 402.446 -69.2051 398.592 -67.8593 394.791L-69.7446 394.123ZM-78.4694 416.865C-79.2511 418.761 -80.051 420.669 -80.8694 422.589L-79.0295 423.373C-78.2081 421.446 -77.4052 419.531 -76.6205 417.627L-78.4694 416.865ZM-80.8694 422.589C-81.6388 424.394 -82.3878 426.206 -83.1167 428.025L-81.2602 428.769C-80.5367 426.963 -79.7932 425.165 -79.0295 423.373L-80.8694 422.589ZM-87.2518 439.023C-88.553 442.72 -89.7757 446.442 -90.9224 450.188L-89.01 450.773C-87.8713 447.054 -86.6571 443.358 -85.3652 439.687L-87.2518 439.023ZM-94.1362 461.488C-95.1322 465.274 -96.0546 469.08 -96.9058 472.905L-94.9536 473.339C-94.1078 469.539 -93.1914 465.757 -92.202 461.997L-94.1362 461.488ZM-99.2456 484.419C-99.9544 488.266 -100.595 492.128 -101.169 496.005L-99.1906 496.298C-98.6197 492.444 -97.9832 488.604 -97.2787 484.781L-99.2456 484.419ZM-102.693 507.647C-103.135 511.532 -103.515 515.429 -103.833 519.336L-101.84 519.498C-101.523 515.613 -101.146 511.737 -100.705 507.874L-102.693 507.647ZM-104.606 531.056C-104.804 534.96 -104.944 538.87 -105.029 542.785L-103.029 542.828C-102.945 538.932 -102.806 535.041 -102.609 531.158L-104.606 531.056ZM-105.116 554.523C-105.091 558.433 -105.012 562.347 -104.883 566.261L-102.884 566.195C-103.013 562.298 -103.091 558.402 -103.116 554.51L-105.116 554.523ZM-104.346 577.987C-104.118 581.89 -103.841 585.793 -103.518 589.692L-101.524 589.527C-101.846 585.643 -102.122 581.757 -102.349 577.87L-104.346 577.987ZM-102.412 601.375C-101.998 605.266 -101.541 609.151 -101.041 613.029L-99.0576 612.773C-99.5553 608.91 -100.011 605.04 -100.423 601.164L-102.412 601.375ZM-99.4175 624.648C-98.8345 628.521 -98.2116 632.383 -97.551 636.235L-95.5798 635.897C-96.2382 632.058 -96.8589 628.209 -97.4398 624.351L-99.4175 624.648ZM-95.4529 647.778C-94.7151 651.624 -93.9414 655.455 -93.134 659.271L-91.1773 658.857C-91.9821 655.053 -92.7533 651.234 -93.4887 647.401L-95.4529 647.778ZM-90.5993 670.728C-89.7169 674.551 -88.8024 678.356 -87.8582 682.14L-85.9177 681.656C-86.8591 677.883 -87.7708 674.09 -88.6505 670.278L-90.5993 670.728ZM-84.9207 693.495C-83.9063 697.282 -82.8638 701.046 -81.7955 704.784L-79.8725 704.235C-80.9377 700.507 -81.9773 696.754 -82.9888 692.977L-84.9207 693.495ZM-78.4781 716.044C-77.3354 719.81 -76.1685 723.546 -74.9797 727.25L-73.0754 726.639C-74.2609 722.945 -75.4248 719.219 -76.5643 715.464L-78.4781 716.044ZM-71.3091 738.389C-70.0492 742.115 -68.7691 745.805 -67.4717 749.456L-65.5872 748.786C-66.8812 745.145 -68.1579 741.464 -69.4145 737.749L-71.3091 738.389ZM-63.4654 760.466C-62.0855 764.171 -60.6899 767.832 -59.2817 771.445L-57.4183 770.719C-58.8228 767.115 -60.2148 763.463 -61.5912 759.768L-63.4654 760.466ZM-54.9365 782.351C-53.4438 786.017 -51.9408 789.629 -50.431 793.183L-48.5903 792.4C-50.0961 788.856 -51.5953 785.254 -53.0842 781.597L-54.9365 782.351ZM-45.7644 803.937C-44.1565 807.566 -42.5451 811.127 -40.9342 814.614L-39.1185 813.776C-40.725 810.297 -42.3322 806.747 -43.9358 803.127L-45.7644 803.937ZM-35.9349 825.213C-34.202 828.811 -32.4748 832.319 -30.7584 835.733L-28.9715 834.835C-30.6828 831.431 -32.4051 827.933 -34.133 824.345L-35.9349 825.213ZM-25.3927 846.17C-23.5132 849.745 -21.654 853.196 -19.8221 856.516L-18.0709 855.55C-19.8961 852.242 -21.7491 848.802 -23.6225 845.24L-25.3927 846.17ZM-14.0278 866.748C-13.0361 868.453 -12.0555 870.114 -11.0872 871.73L-9.3715 870.702C-10.3353 869.093 -11.3116 867.44 -12.2991 865.743L-14.0278 866.748Z" fill="#F0C244"/>
</svg>
