<svg width="48" height="48" viewBox="0 0 48 48" fill="none" xmlns="http://www.w3.org/2000/svg">
<rect width="48" height="48" rx="24" fill="#333333"/>
<path d="M19.9372 21.7645H16.9148V30.6156H19.9372V21.7645Z" fill="white"/>
<path d="M19.429 17.634C19.141 17.4595 18.8025 17.3665 18.4562 17.3665C18.2251 17.3665 17.9964 17.4079 17.783 17.4884C17.5697 17.569 17.376 17.687 17.2131 17.8357C17.0502 17.9844 16.9213 18.1609 16.8338 18.3549C16.7462 18.549 16.7019 18.7569 16.7032 18.9666C16.7052 19.2809 16.8097 19.5876 17.0035 19.848C17.1974 20.1084 17.4718 20.3109 17.7923 20.4299C18.1128 20.549 18.4649 20.5792 18.8043 20.5167C19.1437 20.4543 19.4551 20.3021 19.6993 20.0792C19.9434 19.8564 20.1094 19.5729 20.1762 19.2645C20.243 18.9561 20.2077 18.6367 20.0748 18.3465C19.9418 18.0563 19.7171 17.8084 19.429 17.634Z" fill="white"/>
<path d="M24.7887 21.7641H21.8771L21.867 30.6334H24.8894V26.2536C24.8894 25.1015 25.1312 23.986 26.7028 23.986C28.2745 23.986 28.2745 25.3118 28.2745 26.3359V30.6151H31.2968V25.7599C31.2968 23.3734 30.6823 21.5446 27.6599 21.5446C27.0839 21.5242 26.5125 21.6461 26.0068 21.8973C25.5011 22.1485 25.0801 22.5196 24.7887 22.9711V21.7641Z" fill="white"/>
</svg>
