<svg width="44" height="44" viewBox="0 0 44 44" fill="none" xmlns="http://www.w3.org/2000/svg">
<rect width="44" height="44" rx="22" fill="#F0C244"/>
<path d="M26.6885 20.9587C26.3302 20.9587 26.0469 20.667 26.0469 20.317C26.0469 20.0087 25.7385 19.367 25.2219 18.8087C24.7135 18.267 24.1552 17.9503 23.6885 17.9503C23.3302 17.9503 23.0469 17.6587 23.0469 17.3087C23.0469 16.9587 23.3385 16.667 23.6885 16.667C24.5219 16.667 25.3969 17.117 26.1635 17.9253C26.8802 18.6837 27.3385 19.6253 27.3385 20.3087C27.3385 20.667 27.0469 20.9587 26.6885 20.9587Z" fill="#333333"/>
<path d="M29.6885 20.9587C29.3302 20.9587 29.0469 20.667 29.0469 20.317C29.0469 17.3587 26.6385 14.9587 23.6885 14.9587C23.3302 14.9587 23.0469 14.667 23.0469 14.317C23.0469 13.967 23.3302 13.667 23.6802 13.667C27.3469 13.667 30.3302 16.6503 30.3302 20.317C30.3302 20.667 30.0385 20.9587 29.6885 20.9587Z" fill="#333333"/>
<path d="M21.2135 24.4587L19.6719 26.0003C19.3469 26.3253 18.8302 26.3253 18.4969 26.0087C18.4052 25.917 18.3135 25.8337 18.2219 25.742C17.3635 24.8753 16.5885 23.967 15.8969 23.017C15.2135 22.067 14.6635 21.117 14.2635 20.1753C13.8719 19.2253 13.6719 18.317 13.6719 17.4503C13.6719 16.8837 13.7719 16.342 13.9719 15.842C14.1719 15.3337 14.4885 14.867 14.9302 14.4503C15.4635 13.9253 16.0469 13.667 16.6635 13.667C16.8969 13.667 17.1302 13.717 17.3385 13.817C17.5552 13.917 17.7469 14.067 17.8969 14.2837L19.8302 17.0087C19.9802 17.217 20.0885 17.4087 20.1635 17.592C20.2385 17.767 20.2802 17.942 20.2802 18.1003C20.2802 18.3003 20.2219 18.5003 20.1052 18.692C19.9969 18.8837 19.8385 19.0837 19.6385 19.2837L19.0052 19.942C18.9135 20.0337 18.8719 20.142 18.8719 20.2753C18.8719 20.342 18.8802 20.4003 18.8969 20.467C18.9219 20.5337 18.9469 20.5837 18.9635 20.6337C19.1135 20.9087 19.3719 21.267 19.7385 21.7003C20.1135 22.1337 20.5135 22.5753 20.9469 23.017C21.0302 23.1003 21.1219 23.1837 21.2052 23.267C21.5385 23.592 21.5469 24.1253 21.2135 24.4587Z" fill="#333333"/>
<path d="M30.3083 27.275C30.3083 27.5083 30.2667 27.75 30.1833 27.9833C30.1583 28.05 30.1333 28.1166 30.1 28.1833C29.9583 28.4833 29.775 28.7666 29.5333 29.0333C29.125 29.4833 28.675 29.8083 28.1667 30.0166C28.1583 30.0166 28.15 30.025 28.1417 30.025C27.65 30.225 27.1167 30.3333 26.5417 30.3333C25.6917 30.3333 24.7833 30.1333 23.825 29.725C22.8667 29.3166 21.9083 28.7666 20.9583 28.075C20.6333 27.8333 20.3083 27.5916 20 27.3333L22.725 24.6083C22.9583 24.7833 23.1667 24.9166 23.3417 25.0083C23.3833 25.025 23.4333 25.05 23.4917 25.075C23.5583 25.1 23.625 25.1083 23.7 25.1083C23.8417 25.1083 23.95 25.0583 24.0417 24.9666L24.675 24.3416C24.8833 24.1333 25.0833 23.975 25.275 23.875C25.4667 23.7583 25.6583 23.7 25.8667 23.7C26.025 23.7 26.1917 23.7333 26.375 23.8083C26.5583 23.8833 26.75 23.9916 26.9583 24.1333L29.7167 26.0916C29.9333 26.2416 30.0833 26.4166 30.175 26.625C30.2583 26.8333 30.3083 27.0416 30.3083 27.275Z" fill="#333333"/>
</svg>
