<svg width="150" height="150" viewBox="0 0 150 150" fill="none" xmlns="http://www.w3.org/2000/svg">
<g filter="url(#filter0_d_2170_145)">
<rect x="20" width="110" height="110" rx="20" fill="white"/>
</g>
<g clip-path="url(#clip0_2170_145)">
<path d="M99.8154 50.8619C98.9536 50.2265 97.8677 49.4327 97.7362 48.9142C97.7914 47.9103 98.0781 46.9329 98.5738 46.0583C99.3334 44.315 100.117 42.5085 99.2457 41.0063C98.3742 39.5041 96.3923 39.2606 94.4859 39.0585C93.4978 39.0519 92.5243 38.8195 91.6397 38.3792C91.1987 37.4916 90.9672 36.5145 90.9628 35.5234C90.7486 33.617 90.527 31.6449 89.0151 30.7635C87.5031 29.8821 85.6941 30.654 83.951 31.4233C83.0754 31.9187 82.0972 32.2053 81.0927 32.2609C80.5668 32.1197 79.7756 31.0435 79.1449 30.1816C78.0396 28.6916 76.7954 27.002 74.9986 27.002C73.2018 27.002 71.9578 28.6916 70.8596 30.1816C70.2218 31.0459 69.4304 32.1294 68.9119 32.2633C67.9082 32.2028 66.9311 31.9165 66.0536 31.4257C64.3006 30.6539 62.4941 29.8845 60.9968 30.7513C59.4995 31.6181 59.2487 33.6048 59.0344 35.5232C59.0275 36.511 58.796 37.4843 58.3575 38.3694C57.4747 38.8034 56.5049 39.0315 55.5212 39.0365C53.6124 39.2507 51.6378 39.4723 50.759 40.9843C49.8801 42.4962 50.652 44.3029 51.4213 46.0486C51.9186 46.9261 52.2053 47.907 52.2589 48.9142C52.1177 49.44 51.0415 50.2338 50.1796 50.8619C48.6896 51.9575 47 53.2041 47 55.0009C47 56.7977 48.6896 58.0443 50.1822 59.1399C51.044 59.7754 52.1299 60.5691 52.2614 61.0877C52.2062 62.0915 51.9195 63.0689 51.4238 63.9436C50.6642 65.6868 49.8803 67.4933 50.7519 68.9956C51.6235 70.4978 53.6054 70.7412 55.5117 70.9433C56.4998 70.95 57.4733 71.1823 58.3579 71.6226C58.7989 72.5103 59.0304 73.4873 59.0348 74.4785C59.249 76.3848 59.4706 78.3569 60.9825 79.2383C62.4945 80.1197 64.2889 79.326 66.0345 78.5664C66.9189 78.0764 67.9028 77.7934 68.9123 77.7386C69.4382 77.8798 70.2294 78.956 70.8601 79.8179C71.9581 81.3079 73.2023 82.9975 74.9991 82.9975C76.7959 82.9975 78.04 81.3079 79.1381 79.8179C79.7759 78.9536 80.5673 77.8701 81.0859 77.7362C82.0902 77.793 83.068 78.0795 83.9441 78.5738C85.6874 79.3334 87.4939 80.1125 88.9936 79.2481C90.4933 78.3839 90.7417 76.3947 90.956 74.4859C90.963 73.4982 91.1944 72.5249 91.6329 71.6397C92.5173 71.2022 93.4898 70.9715 94.4765 70.9654C96.3853 70.7512 98.3599 70.5295 99.2388 69.0176C100.118 67.5057 99.324 65.7113 98.5668 63.9656C98.0711 63.0836 97.7878 62.0983 97.739 61.0878C97.8802 60.5619 98.9564 59.7682 99.8183 59.14C101.308 58.042 103 56.7954 103 55.001C103 53.2066 101.308 51.9575 99.8154 50.8619Z" fill="#F0C244"/>
<path d="M67.6933 61.0885C67.3102 61.0885 66.9493 60.908 66.7194 60.6015L61.6066 53.7844V59.8711C61.6066 60.5434 61.0616 61.0885 60.3893 61.0885C59.7169 61.0885 59.1719 60.5434 59.1719 59.8711V50.1324C59.1719 49.4601 59.7169 48.915 60.3893 48.915C60.7724 48.915 61.1332 49.0955 61.3631 49.402L66.4759 56.2191V50.1324C66.4759 49.4601 67.021 48.915 67.6933 48.915C68.3656 48.915 68.9107 49.4601 68.9107 50.1324V59.8711C68.9103 60.3948 68.5749 60.8596 68.078 61.0251C67.9541 61.0671 67.8242 61.0885 67.6933 61.0885Z" fill="#FAFAFA"/>
<path d="M77.4305 61.0885H72.5611C71.8888 61.0885 71.3438 60.5434 71.3438 59.8711V50.1324C71.3438 49.4601 71.8888 48.915 72.5611 48.915H77.4305C78.1028 48.915 78.6479 49.4601 78.6479 50.1324C78.6479 50.8047 78.1028 51.3498 77.4305 51.3498H73.7785V58.6538H77.4305C78.1028 58.6538 78.6479 59.1989 78.6479 59.8712C78.6479 60.5435 78.1028 61.0885 77.4305 61.0885Z" fill="#FAFAFA"/>
<path d="M77.4305 56.2189H72.5611C71.8888 56.2189 71.3438 55.6739 71.3438 55.0016C71.3438 54.3292 71.8888 53.7842 72.5611 53.7842H77.4305C78.1028 53.7842 78.6479 54.3292 78.6479 55.0016C78.6479 55.6739 78.1028 56.2189 77.4305 56.2189Z" fill="#FAFAFA"/>
<path d="M89.6072 61.0886C89.0825 61.0892 88.6164 60.7537 88.4507 60.2559L87.1725 56.4164L85.8943 60.2559C85.7388 60.7812 85.238 61.127 84.6916 61.0862C84.1508 61.0656 83.6886 60.6907 83.557 60.1659L81.1224 50.4272C80.9597 49.7744 81.357 49.1133 82.0098 48.9505C82.6626 48.7878 83.3238 49.1852 83.4865 49.838L84.9059 55.5205L86.0185 52.1826C86.3078 51.5445 87.0595 51.2618 87.6976 51.5511C87.9777 51.6781 88.2021 51.9025 88.3291 52.1826L89.4417 55.5205L90.8611 49.838C91.0238 49.1852 91.6848 48.7878 92.3377 48.9505C92.9905 49.1133 93.3879 49.7743 93.2252 50.4272L90.7905 60.1659C90.6589 60.6907 90.1966 61.0656 89.656 61.0862L89.6072 61.0886Z" fill="#FAFAFA"/>
</g>
<defs>
<filter id="filter0_d_2170_145" x="0" y="0" width="150" height="150" filterUnits="userSpaceOnUse" color-interpolation-filters="sRGB">
<feFlood flood-opacity="0" result="BackgroundImageFix"/>
<feColorMatrix in="SourceAlpha" type="matrix" values="0 0 0 0 0 0 0 0 0 0 0 0 0 0 0 0 0 0 127 0" result="hardAlpha"/>
<feOffset dy="20"/>
<feGaussianBlur stdDeviation="10"/>
<feColorMatrix type="matrix" values="0 0 0 0 0 0 0 0 0 0 0 0 0 0 0 0 0 0 0.06 0"/>
<feBlend mode="normal" in2="BackgroundImageFix" result="effect1_dropShadow_2170_145"/>
<feBlend mode="normal" in="SourceGraphic" in2="effect1_dropShadow_2170_145" result="shape"/>
</filter>
<clipPath id="clip0_2170_145">
<rect width="56" height="56" fill="white" transform="translate(47 27)"/>
</clipPath>
</defs>
</svg>
