<svg width="150" height="150" viewBox="0 0 150 150" fill="none" xmlns="http://www.w3.org/2000/svg">
<g filter="url(#filter0_d_2170_124)">
<rect x="20" width="110" height="110" rx="20" fill="white"/>
</g>
<g clip-path="url(#clip0_2170_124)">
<path d="M59.6538 37.8262H57.8281V41.4773H59.6538C60.6604 41.4773 61.4794 40.6583 61.4794 39.6517C61.4794 38.6451 60.6604 37.8262 59.6538 37.8262Z" fill="#F0C244"/>
<path d="M99.2087 75.2181C101.329 74.4621 102.86 72.4546 102.86 70.0777V66.4265C102.86 63.8867 101.114 61.7648 98.7647 61.1481L96.2956 53.7413C95.5492 51.5014 93.462 49.9961 91.1005 49.9961H76.8903C74.5288 49.9961 72.4416 51.5013 71.6952 53.7406L69.2258 61.148C66.8769 61.7647 65.131 63.8866 65.131 66.4264V70.0776C65.131 72.4544 66.6618 74.4619 68.7821 75.2179V77.3799C68.7821 78.023 68.9141 78.6317 69.1185 79.2055H61.4797V55.9357C67.6625 55.0451 72.4333 49.7274 72.4333 43.3024V39.6513C72.4333 32.6049 66.7009 26.8721 59.6542 26.8721C52.6074 26.8721 46.875 32.6049 46.875 39.6513V43.3024C46.875 49.7274 51.6457 55.0451 57.8286 55.9357V79.2057H48.7006C47.6928 79.2057 46.875 80.0229 46.875 81.0312C46.875 82.0397 47.6928 82.8569 48.7006 82.8569H101.034C102.042 82.8569 102.86 82.0397 102.86 81.0312C102.86 80.0228 102.042 79.2056 101.034 79.2056H98.8723C99.0768 78.6318 99.2087 78.0233 99.2087 77.38V75.2181ZM57.8286 45.128V46.9537C57.8286 47.9622 57.0108 48.7793 56.0029 48.7793C54.9951 48.7793 54.1773 47.9622 54.1773 46.9537V43.3025V36C54.1773 34.9915 54.9951 34.1744 56.0029 34.1744H59.6541C62.6741 34.1744 65.1309 36.6311 65.1309 39.6511C65.1309 42.6712 62.6741 45.1279 59.6541 45.1279H57.8286V45.128ZM75.1587 54.8954C75.4083 54.149 76.1037 53.6475 76.8905 53.6475H91.1007C91.8876 53.6475 92.5829 54.149 92.8324 54.8961L94.8503 60.9499C88.2033 60.9499 79.973 60.9499 73.1404 60.9499L75.1587 54.8954ZM70.6076 71.9033C69.601 71.9033 68.782 71.0843 68.782 70.0777V66.4265C68.782 65.4199 69.601 64.6009 70.6076 64.6009H72.9435L75.3776 71.9033H70.6076ZM79.3992 79.2057C79.6037 78.6319 79.7356 78.0234 79.7356 77.3801V75.5545H88.255V77.3801C88.255 78.0233 88.387 78.6319 88.5913 79.2057H79.3992ZM97.383 71.9033H92.6132L95.0473 64.6009H97.3831C98.3898 64.6009 99.2088 65.4199 99.2088 66.4265V70.0777C99.2087 71.0843 98.3897 71.9033 97.383 71.9033Z" fill="#F0C244"/>
</g>
<defs>
<filter id="filter0_d_2170_124" x="0" y="0" width="150" height="150" filterUnits="userSpaceOnUse" color-interpolation-filters="sRGB">
<feFlood flood-opacity="0" result="BackgroundImageFix"/>
<feColorMatrix in="SourceAlpha" type="matrix" values="0 0 0 0 0 0 0 0 0 0 0 0 0 0 0 0 0 0 127 0" result="hardAlpha"/>
<feOffset dy="20"/>
<feGaussianBlur stdDeviation="10"/>
<feColorMatrix type="matrix" values="0 0 0 0 0 0 0 0 0 0 0 0 0 0 0 0 0 0 0.06 0"/>
<feBlend mode="normal" in2="BackgroundImageFix" result="effect1_dropShadow_2170_124"/>
<feBlend mode="normal" in="SourceGraphic" in2="effect1_dropShadow_2170_124" result="shape"/>
</filter>
<clipPath id="clip0_2170_124">
<rect width="55.9848" height="55.9848" fill="white" transform="translate(46.875 26.8721)"/>
</clipPath>
</defs>
</svg>
