<svg width="49" height="49" viewBox="0 0 49 49" fill="none" xmlns="http://www.w3.org/2000/svg">
<path d="M12.7553 41.2099C14.2122 41.2099 15.3933 40.0288 15.3933 38.5718C15.3933 37.1148 14.2122 35.9337 12.7553 35.9337C11.2983 35.9337 10.1172 37.1148 10.1172 38.5718C10.1172 40.0288 11.2983 41.2099 12.7553 41.2099Z" fill="#333333"/>
<path d="M36.9193 41.288C38.3763 41.288 39.5574 40.1069 39.5574 38.6499C39.5574 37.1929 38.3763 36.0118 36.9193 36.0118C35.4624 36.0118 34.2812 37.1929 34.2812 38.6499C34.2812 40.1069 35.4624 41.288 36.9193 41.288Z" fill="#333333"/>
<path d="M43.6533 34.7049C43.522 34.4976 43.4186 34.2739 43.3457 34.0396C43.2552 33.7509 43.2154 33.4486 43.2281 33.1463L43.337 30.6378L40.0898 30.0796L38.2101 29.3702L34.7949 28.0814C34.7402 28.0602 34.685 28.042 34.6298 28.0247C30.7452 26.8247 26.9335 26.9303 25.2986 27.0546V27.0609L25.2564 27.0647C22.3735 27.249 16.9783 29.9663 15.1922 30.9047C14.8019 31.1102 14.3802 31.2495 13.9442 31.317C10.8271 31.797 9.02182 32.3874 8.19766 32.709C7.82326 32.853 6.87622 33.1348 6.63478 33.3167C6.05302 33.7574 5.76262 34.9065 5.70598 35.1407C5.40022 36.4118 6.24694 37.883 6.60262 38.038C7.06918 38.2406 7.7095 38.3793 8.20678 38.4647C8.44054 38.5046 8.83846 38.5329 9.15862 38.5506C9.17212 37.6035 9.5586 36.6999 10.2342 36.036C10.9098 35.3721 11.8199 35.0014 12.7671 35.0043C13.7143 35.0073 14.6222 35.3837 15.2936 36.0519C15.965 36.72 16.3458 37.626 16.3533 38.5732V38.6519H33.3305C33.3241 37.6979 33.697 36.7804 34.3671 36.1013C35.0371 35.4223 35.9496 35.0372 36.9036 35.0308C37.8576 35.0244 38.7751 35.3973 39.4542 36.0674C40.1332 36.7375 40.5183 37.6499 40.5247 38.6039C42.6093 38.4076 43.1868 37.7879 43.1868 37.7879C44.43 36.5097 44.0666 35.3596 43.6533 34.7049ZM14.3345 33.8318C15.0473 33.7216 15.737 33.4945 16.3759 33.1598C20.2956 31.102 23.8447 29.7071 25.4186 29.6078H25.4325C25.4772 29.6049 25.5223 29.6015 25.565 29.5967L25.7047 29.5818C26.0925 29.5569 26.6335 29.5338 27.2748 29.5338C28.9159 29.5338 31.3941 29.6951 33.8781 30.4626L33.8954 30.4689L39.4188 32.553L40.6946 32.7719L40.6831 33.0398C40.674 33.2529 40.6773 33.5927 40.6951 33.838L14.3345 33.8318Z" fill="#333333"/>
<path d="M27.5147 35.2321C27.2601 35.2321 27.0159 35.1309 26.8359 34.9509C26.6558 34.7708 26.5547 34.5267 26.5547 34.2721V29.0881C26.5547 28.8334 26.6558 28.5893 26.8359 28.4092C27.0159 28.2292 27.2601 28.1281 27.5147 28.1281C27.7693 28.1281 28.0135 28.2292 28.1935 28.4092C28.3735 28.5893 28.4747 28.8334 28.4747 29.0881V34.2721C28.4747 34.5267 28.3735 34.7708 28.1935 34.9509C28.0135 35.1309 27.7693 35.2321 27.5147 35.2321Z" fill="#333333"/>
<path d="M21.2731 20.714C21.1107 20.7142 20.9518 20.6674 20.8155 20.5791C20.6792 20.4908 20.5714 20.365 20.5051 20.2167C19.8869 18.8335 18.8814 17.6589 17.6102 16.8346C16.3389 16.0103 14.8562 15.5717 13.3411 15.5717C11.826 15.5717 10.3433 16.0103 9.07207 16.8346C7.80082 17.6589 6.79536 18.8335 6.17711 20.2167C6.08616 20.4201 5.91814 20.579 5.71001 20.6585C5.50189 20.738 5.27072 20.7315 5.06735 20.6406C4.86399 20.5496 4.70508 20.3816 4.6256 20.1735C4.54611 19.9653 4.55256 19.7342 4.64351 19.5308C5.39417 17.8516 6.61488 16.4255 8.15827 15.4249C9.70166 14.4242 11.5017 13.8917 13.3411 13.8917C15.1805 13.8917 16.9806 14.4242 18.524 15.4249C20.0673 16.4255 21.2881 17.8516 22.0387 19.5308C22.0959 19.6588 22.1201 19.7991 22.1092 19.9389C22.0983 20.0787 22.0526 20.2135 21.9763 20.3311C21.8999 20.4487 21.7954 20.5454 21.6722 20.6122C21.5489 20.6791 21.4109 20.7141 21.2707 20.714H21.2731Z" fill="#333333"/>
<path d="M18.3919 22.0019C18.2296 22.0022 18.0708 21.9555 17.9345 21.8674C17.7982 21.7793 17.6903 21.6536 17.6239 21.5056C17.2549 20.6782 16.6541 19.9754 15.8942 19.4823C15.1343 18.9891 14.2478 18.7267 13.3418 18.7267C12.4359 18.7267 11.5494 18.9891 10.7895 19.4823C10.0295 19.9754 9.42876 20.6782 9.05976 21.5056C8.96861 21.7089 8.80043 21.8676 8.59222 21.9469C8.38401 22.0262 8.15283 22.0196 7.94952 21.9284C7.74622 21.8373 7.58745 21.6691 7.50814 21.4609C7.42884 21.2527 7.43549 21.0215 7.52664 20.8182C8.02832 19.6952 8.84442 18.7415 9.87635 18.0723C10.9083 17.4031 12.1119 17.047 13.3418 17.047C14.5718 17.047 15.7754 17.4031 16.8073 18.0723C17.8393 18.7415 18.6554 19.6952 19.157 20.8182C19.2145 20.9462 19.2389 21.0866 19.2281 21.2265C19.2173 21.3664 19.1716 21.5014 19.0952 21.6191C19.0189 21.7368 18.9142 21.8335 18.7909 21.9004C18.6675 21.9672 18.5294 22.0021 18.389 22.0019H18.3919Z" fill="#333333"/>
<path d="M15.5096 23.2887C15.3474 23.289 15.1885 23.2423 15.0522 23.1542C14.9159 23.0661 14.808 22.9404 14.7416 22.7924C14.6206 22.5217 14.4238 22.2919 14.175 22.1307C13.9262 21.9694 13.636 21.8836 13.3396 21.8836C13.0431 21.8836 12.7529 21.9694 12.5042 22.1307C12.2554 22.2919 12.0586 22.5217 11.9375 22.7924C11.8414 22.9875 11.6734 23.1377 11.4688 23.2115C11.2642 23.2852 11.039 23.2768 10.8405 23.1879C10.642 23.0989 10.4857 22.9365 10.4046 22.7347C10.3234 22.5329 10.3237 22.3076 10.4053 22.106C10.6589 21.5396 11.071 21.0587 11.5918 20.7212C12.1126 20.3838 12.7199 20.2042 13.3405 20.2042C13.9611 20.2042 14.5684 20.3838 15.0892 20.7212C15.6101 21.0587 16.0221 21.5396 16.2757 22.106C16.3331 22.234 16.3576 22.3744 16.3468 22.5143C16.336 22.6542 16.2903 22.7891 16.2139 22.9069C16.1375 23.0246 16.0329 23.1213 15.9095 23.1881C15.7862 23.255 15.648 23.2899 15.5077 23.2897L15.5096 23.2887Z" fill="#333333"/>
<path d="M34.9131 27.1049C34.975 27.1241 35.0523 27.149 35.1367 27.1817L37.6606 28.134V17.4982H34.2891V26.9225C34.4958 26.9801 34.7038 27.0409 34.9131 27.1049Z" fill="#333333"/>
<path d="M29.875 7.72375V16.5375H42.0742V7.72375H29.875ZM36.1592 13.3167H34.8896V14.5494C34.8896 14.7085 34.8263 14.8611 34.7138 14.9736C34.6013 15.0861 34.4487 15.1494 34.2896 15.1494C34.1304 15.1494 33.9778 15.0861 33.8653 14.9736C33.7528 14.8611 33.6896 14.7085 33.6896 14.5494V9.71288C33.6896 9.55375 33.7528 9.40113 33.8653 9.28861C33.9778 9.17609 34.1304 9.11287 34.2896 9.11287H36.1592C36.4352 9.11287 36.7085 9.16724 36.9635 9.27287C37.2185 9.37851 37.4503 9.53333 37.6454 9.72851C37.8406 9.92369 37.9955 10.1554 38.1011 10.4104C38.2067 10.6654 38.2611 10.9388 38.2611 11.2148C38.2611 11.4908 38.2067 11.7641 38.1011 12.0192C37.9955 12.2742 37.8406 12.5059 37.6454 12.7011C37.4503 12.8963 37.2185 13.0511 36.9635 13.1567C36.7085 13.2623 36.4352 13.3167 36.1592 13.3167ZM36.1592 10.3129H34.8896V12.1167H36.1592C36.3984 12.1167 36.6278 12.0217 36.7969 11.8525C36.9661 11.6834 37.0611 11.454 37.0611 11.2148C37.0611 10.9756 36.9661 10.7462 36.7969 10.577C36.6278 10.4079 36.3984 10.3129 36.1592 10.3129Z" fill="#333333"/>
</svg>
