<svg width="425" height="378" viewBox="0 0 425 378" fill="none" xmlns="http://www.w3.org/2000/svg">
<path d="M44.9054 165.413L97.3746 158.944L94.4996 112.944H44.9054V165.413Z" fill="#FFB6B6"/>
<path d="M38.4522 46.9147L89.6817 47.5551C90.6432 47.554 91.5651 47.1715 92.245 46.4916C92.9249 45.8117 93.3074 44.8898 93.3085 43.9283V27.0016C93.3085 19.8403 90.4637 12.9724 85.3999 7.90858C80.3362 2.8448 73.4682 0 66.307 0C59.1457 0 52.2778 2.8448 47.214 7.90858C42.1502 12.9724 39.3054 19.8403 39.3054 27.0016L34.8247 43.2879C34.8258 44.2494 35.2083 45.1713 35.8882 45.8512C36.5681 46.5311 37.4907 46.9136 38.4522 46.9147Z" fill="#333333"/>
<path d="M13.3662 197.414C14.2187 196.642 14.8916 195.693 15.3376 194.633C15.7836 193.573 15.9918 192.429 15.9475 191.28C15.9033 190.131 15.6076 189.005 15.0814 187.983C14.5552 186.96 13.8112 186.066 12.9019 185.362L21.8145 158.872L7.77212 162.583L1.45931 187.169C0.372225 188.775 -0.0867863 190.724 0.169632 192.647C0.42605 194.569 1.37999 196.33 2.85001 197.595C4.32003 198.859 6.20361 199.54 8.14255 199.506C10.0815 199.473 11.9406 198.728 13.3662 197.414Z" fill="#FFB6B6"/>
<path d="M74.1191 367.813L84.6345 366.108L83.0576 324.737L67.5382 327.253L74.1191 367.813Z" fill="#FFB6B6"/>
<path d="M21.7073 345.881L31.2178 350.68L56.4089 314.124L42.3722 307.042L21.7073 345.881Z" fill="#FFB6B6"/>
<path d="M66.5292 47.3793C56.202 47.3793 47.83 39.0074 47.83 28.6801C47.83 18.3529 56.202 9.98096 66.5292 9.98096C76.8565 9.98096 85.2284 18.3529 85.2284 28.6801C85.2284 39.0074 76.8565 47.3793 66.5292 47.3793Z" fill="#FFB8B8"/>
<path d="M51.7226 332.589L95.5157 220.92C111.189 178.107 97.1854 148.6 97.0416 148.307L96.9698 148.164L96.8203 148.109C95.0218 155.108 54.2468 154.632 44.903 143.85C39.449 148.432 32.1903 159.219 30.6349 172.109C29.01 185.938 30.2425 199.953 34.2561 213.286L51.5062 271.764L30.1642 319.842L51.7226 332.589Z" fill="#333333"/>
<path d="M72.8463 263.323L88.6589 343.505L67.5994 347.476L54.3491 278.071L72.8463 263.323Z" fill="#333333"/>
<path d="M95.9389 126.601C92.5701 127.501 59.2686 141.223 43.4696 127.32L31.0718 66.1073L45.9253 61.4224L51.1086 55.1193C51.6698 54.4357 52.3778 53.8874 53.1801 53.515C53.9824 53.1427 54.8582 52.9559 55.7426 52.9686L74.1688 53.215C74.9839 53.2269 75.7877 53.4071 76.5299 53.7444C77.272 54.0817 77.9364 54.5688 78.4814 55.1751L84.3837 61.7572L97.7158 64.8601L95.9389 126.601Z" fill="#F0C244"/>
<path d="M36.7253 70.8816L32.6887 65.5062C32.6887 65.5062 25.2927 67.4496 21.5351 78.0476C17.7775 88.6457 2.38162 173.32 2.38162 173.32L18.9612 181.018L41.413 106.184L36.7253 70.8816Z" fill="#F0C244"/>
<path d="M169.58 171.72C169.423 170.58 169.018 169.49 168.395 168.524C167.771 167.558 166.943 166.74 165.969 166.129C164.995 165.518 163.899 165.128 162.758 164.986C161.617 164.844 160.459 164.954 159.365 165.308L142.513 143.01L137.66 156.699L154.407 175.776C155.122 177.577 156.473 179.053 158.204 179.924C159.936 180.795 161.926 180.999 163.799 180.499C165.671 179.998 167.294 178.828 168.36 177.209C169.426 175.591 169.859 173.637 169.58 171.72Z" fill="#FFB6B6"/>
<path d="M91.7889 69.6949L97.3727 64.7872C97.3727 64.7872 103.221 66.2628 106.979 76.8609C110.737 87.4589 158.699 158.512 158.699 158.512L142.12 166.21L87.1005 104.994L91.7889 69.6949Z" fill="#F0C244"/>
<path d="M47.0439 27.4466H73.1801C73.6711 27.4461 74.1451 27.2665 74.5132 26.9415C74.8813 26.6165 75.1183 26.1685 75.1797 25.6813L75.5182 22.9745C75.5511 22.7144 75.6677 22.4721 75.8502 22.284C76.0328 22.096 76.2716 21.9723 76.5306 21.9318C76.7895 21.8912 77.0547 21.936 77.2861 22.0592C77.5174 22.1824 77.7024 22.3775 77.8132 22.6151L79.5274 26.2836C79.6904 26.6304 79.9486 26.9237 80.2718 27.1295C80.595 27.3352 80.97 27.4449 81.3531 27.4459H85.3228C85.8566 27.4467 86.3687 27.2354 86.7467 26.8585C87.1247 26.4817 87.3375 25.9701 87.3383 25.4363C87.3384 25.3703 87.3353 25.3043 87.3289 25.2385L85.7634 8.88754C85.73 8.53792 85.6065 8.20294 85.4049 7.91533C85.2034 7.62772 84.9306 7.39731 84.6134 7.24661C72.6439 1.65899 60.5055 1.66618 48.5361 7.26817C48.2325 7.41094 47.9693 7.62714 47.7702 7.8972C47.5712 8.16727 47.4426 8.48269 47.3961 8.81494L45.0508 25.1444C45.0096 25.4302 45.0303 25.7216 45.1117 25.9987C45.193 26.2758 45.3331 26.5322 45.5223 26.7504C45.7115 26.9686 45.9455 27.1435 46.2083 27.2633C46.4711 27.383 46.7566 27.4448 47.0454 27.4444L47.0439 27.4466Z" fill="#333333"/>
<path d="M68.7096 377.447H75.5498L76.7708 370.989L79.8978 377.447H98.0396C98.9092 377.447 99.7561 377.17 100.457 376.654C101.157 376.139 101.674 375.413 101.933 374.583C102.192 373.753 102.179 372.862 101.895 372.039C101.612 371.217 101.073 370.507 100.357 370.013L85.8694 360.008V353.479L70.631 354.389L68.7096 377.447Z" fill="#333333"/>
<path d="M8.09432 361.437L13.8406 365.148L18.3695 360.385L17.4933 367.506L32.7339 377.348C33.4645 377.819 34.3267 378.045 35.1947 377.992C36.0627 377.939 36.891 377.61 37.5588 377.053C38.2265 376.496 38.6987 375.74 38.9064 374.896C39.1141 374.052 39.0465 373.163 38.7134 372.36L31.9703 356.095L35.5118 350.61L22.217 343.108L8.09432 361.437Z" fill="#333333"/>
<path d="M360.517 103.18C359.801 101.481 358.603 100.028 357.071 99.003C355.538 97.9775 353.738 97.424 351.894 97.4109H179.78C177.306 97.4122 174.933 98.3956 173.184 100.145C171.434 101.894 170.451 104.267 170.45 106.741V324.482C170.451 326.956 171.434 329.328 173.184 331.078C174.933 332.827 177.306 333.811 179.78 333.812H351.901C354.374 333.809 356.745 332.825 358.494 331.076C360.243 329.327 361.227 326.955 361.231 324.482V106.741C361.235 105.519 360.994 104.308 360.523 103.18H360.517ZM359.152 324.482C359.15 326.406 358.385 328.251 357.024 329.611C355.663 330.972 353.819 331.738 351.894 331.74H179.78C177.855 331.74 176.009 330.975 174.648 329.614C173.287 328.253 172.522 326.408 172.522 324.483V106.742C172.524 104.818 173.29 102.973 174.65 101.613C176.011 100.252 177.856 99.4867 179.78 99.4841H351.901C353.35 99.4896 354.765 99.9268 355.965 100.74C357.165 101.553 358.095 102.706 358.637 104.05C358.743 104.318 358.834 104.591 358.91 104.869C359.075 105.48 359.159 106.109 359.159 106.742L359.152 324.482Z" fill="#333333"/>
<path d="M324.596 148.819H272.753C272.208 148.82 271.668 148.713 271.164 148.505C270.66 148.297 270.202 147.992 269.816 147.607C269.43 147.221 269.124 146.764 268.915 146.26C268.706 145.757 268.599 145.217 268.599 144.672C268.599 144.126 268.706 143.586 268.915 143.083C269.124 142.579 269.43 142.122 269.816 141.736C270.202 141.351 270.66 141.046 271.164 140.838C271.668 140.63 272.208 140.523 272.753 140.524H324.596C325.141 140.523 325.681 140.63 326.185 140.838C326.689 141.046 327.147 141.351 327.533 141.736C327.919 142.122 328.225 142.579 328.434 143.083C328.643 143.586 328.75 144.126 328.75 144.672C328.75 145.217 328.643 145.757 328.434 146.26C328.225 146.764 327.919 147.221 327.533 147.607C327.147 147.992 326.689 148.297 326.185 148.505C325.681 148.713 325.141 148.82 324.596 148.819Z" fill="#333333"/>
<path d="M324.596 170.593H272.753C272.208 170.594 271.668 170.487 271.164 170.279C270.66 170.071 270.202 169.766 269.816 169.381C269.43 168.995 269.124 168.538 268.915 168.034C268.706 167.531 268.599 166.991 268.599 166.445C268.599 165.9 268.706 165.36 268.915 164.857C269.124 164.353 269.43 163.896 269.816 163.51C270.202 163.125 270.66 162.82 271.164 162.612C271.668 162.404 272.208 162.297 272.753 162.298H324.596C325.141 162.297 325.681 162.404 326.185 162.612C326.689 162.82 327.147 163.125 327.533 163.51C327.919 163.896 328.225 164.353 328.434 164.857C328.643 165.36 328.75 165.9 328.75 166.445C328.75 166.991 328.643 167.531 328.434 168.034C328.225 168.538 327.919 168.995 327.533 169.381C327.147 169.766 326.689 170.071 326.185 170.279C325.681 170.487 325.141 170.594 324.596 170.593Z" fill="#333333"/>
<path d="M246.152 182.991H208.265C207.028 182.989 205.841 182.497 204.967 181.623C204.092 180.748 203.6 179.562 203.598 178.325V133.615C203.6 132.378 204.092 131.192 204.967 130.317C205.841 129.442 207.028 128.95 208.265 128.949H246.152C247.389 128.95 248.575 129.442 249.45 130.317C250.325 131.192 250.817 132.378 250.818 133.615V178.325C250.817 179.562 250.325 180.748 249.45 181.623C248.575 182.497 247.389 182.989 246.152 182.991Z" fill="#F0C244"/>
<path d="M324.24 215.178H207.074C205.974 215.178 204.919 214.741 204.141 213.963C203.363 213.186 202.926 212.131 202.926 211.031C202.926 209.931 203.363 208.876 204.141 208.098C204.919 207.32 205.974 206.883 207.074 206.883H324.24C325.34 206.883 326.395 207.32 327.173 208.098C327.95 208.876 328.387 209.931 328.387 211.031C328.387 212.131 327.95 213.186 327.173 213.963C326.395 214.741 325.34 215.178 324.24 215.178Z" fill="#CCCCCC"/>
<path d="M324.241 236.952H207.075C205.977 236.95 204.923 236.513 204.147 235.735C203.37 234.957 202.934 233.903 202.934 232.804C202.934 231.705 203.37 230.651 204.147 229.874C204.923 229.096 205.977 228.658 207.075 228.657H324.241C324.786 228.656 325.326 228.763 325.83 228.971C326.334 229.179 326.792 229.484 327.178 229.869C327.564 230.255 327.87 230.712 328.079 231.216C328.288 231.719 328.395 232.259 328.395 232.804C328.395 233.35 328.288 233.889 328.079 234.393C327.87 234.897 327.564 235.354 327.178 235.739C326.792 236.125 326.334 236.43 325.83 236.638C325.326 236.846 324.786 236.953 324.241 236.952Z" fill="#CCCCCC"/>
<path d="M324.241 258.727H207.075C205.977 258.725 204.923 258.287 204.147 257.51C203.37 256.732 202.934 255.678 202.934 254.579C202.934 253.48 203.37 252.426 204.147 251.649C204.923 250.871 205.977 250.433 207.075 250.432H324.241C324.786 250.431 325.326 250.537 325.83 250.746C326.334 250.954 326.792 251.259 327.178 251.644C327.564 252.029 327.87 252.487 328.079 252.991C328.288 253.494 328.395 254.034 328.395 254.579C328.395 255.124 328.288 255.664 328.079 256.168C327.87 256.672 327.564 257.129 327.178 257.514C326.792 257.9 326.334 258.205 325.83 258.413C325.326 258.621 324.786 258.728 324.241 258.727Z" fill="#CCCCCC"/>
<path d="M324.241 280.501H207.075C205.977 280.499 204.923 280.061 204.147 279.284C203.37 278.506 202.934 277.452 202.934 276.353C202.934 275.254 203.37 274.2 204.147 273.423C204.923 272.645 205.977 272.207 207.075 272.205H324.241C324.786 272.205 325.326 272.311 325.83 272.519C326.334 272.727 326.792 273.033 327.178 273.418C327.564 273.803 327.87 274.261 328.079 274.764C328.288 275.268 328.395 275.808 328.395 276.353C328.395 276.898 328.288 277.438 328.079 277.942C327.87 278.445 327.564 278.903 327.178 279.288C326.792 279.673 326.334 279.979 325.83 280.187C325.326 280.395 324.786 280.502 324.241 280.501Z" fill="#CCCCCC"/>
<path d="M324.241 302.274H207.075C205.977 302.273 204.923 301.835 204.147 301.057C203.37 300.28 202.934 299.226 202.934 298.127C202.934 297.028 203.37 295.974 204.147 295.196C204.923 294.419 205.977 293.981 207.075 293.979H324.241C324.786 293.978 325.326 294.085 325.83 294.293C326.334 294.501 326.792 294.807 327.178 295.192C327.564 295.577 327.87 296.035 328.079 296.538C328.288 297.042 328.395 297.582 328.395 298.127C328.395 298.672 328.288 299.212 328.079 299.716C327.87 300.219 327.564 300.677 327.178 301.062C326.792 301.447 326.334 301.753 325.83 301.961C325.326 302.169 324.786 302.275 324.241 302.274Z" fill="#CCCCCC"/>
<path d="M365.523 136.257C398.316 136.257 424.9 109.674 424.9 76.8811C424.9 44.0884 398.316 17.5046 365.523 17.5046C332.731 17.5046 306.147 44.0884 306.147 76.8811C306.147 109.674 332.731 136.257 365.523 136.257Z" fill="#F0C244"/>
<path d="M364.373 117.751C368.231 117.751 371.359 114.623 371.359 110.764C371.359 106.906 368.231 103.778 364.373 103.778C360.514 103.778 357.386 106.906 357.386 110.764C357.386 114.623 360.514 117.751 364.373 117.751Z" fill="white"/>
<path d="M363.626 37.8618C358.359 37.914 353.32 40.0195 349.582 43.7303C345.844 47.441 343.702 52.464 343.611 57.7304C343.61 57.8312 343.609 58.54 343.609 59.467C343.609 60.8263 344.149 62.1298 345.11 63.091C346.072 64.0522 347.375 64.5923 348.734 64.5924C350.095 64.5921 351.399 64.0515 352.361 63.0894C353.322 62.1274 353.862 60.8227 353.862 59.4625V59.4591C353.861 58.8285 353.861 58.392 353.861 58.3652C353.861 56.6778 354.3 55.0194 355.135 53.5531C355.97 52.0868 357.172 50.8631 358.623 50.0024C360.075 49.1417 361.725 48.6736 363.412 48.6442C365.1 48.6148 366.765 49.0251 368.246 49.8348C369.726 50.6444 370.97 51.8255 371.856 53.2619C372.741 54.6982 373.238 56.3404 373.296 58.0268C373.355 59.7132 372.973 61.3857 372.189 62.8799C371.405 64.3741 370.245 65.6384 368.825 66.5485L368.826 66.5507C368.826 66.5507 361.532 71.2468 359.308 77.689L359.31 77.6895C358.919 79.0092 358.72 80.3786 358.721 81.755C358.721 82.3209 358.755 87.2716 358.819 91.2898C358.841 92.6763 359.408 93.9983 360.397 94.9707C361.385 95.9431 362.716 96.4879 364.103 96.4876C364.797 96.4875 365.484 96.3508 366.125 96.0852C366.767 95.8196 367.349 95.4303 367.84 94.9395C368.331 94.4488 368.72 93.8661 368.985 93.2249C369.251 92.5837 369.388 91.8965 369.388 91.2025L369.387 91.1701C369.365 87.4901 369.353 83.2051 369.353 82.8941C369.353 78.9384 373.169 74.9971 376.304 72.4269C379.932 69.4883 382.482 65.4283 383.554 60.884C383.785 59.9473 383.912 58.988 383.934 58.0235C383.934 55.3758 383.412 52.7539 382.399 50.3077C381.386 47.8615 379.901 45.6389 378.028 43.7666C376.156 41.8944 373.933 40.4092 371.487 39.396C369.041 38.3827 366.419 37.8612 363.771 37.8612C363.723 37.8612 363.674 37.8614 363.626 37.8618Z" fill="white"/>
</svg>
