<svg width="48" height="48" viewBox="0 0 48 48" fill="none" xmlns="http://www.w3.org/2000/svg">
<path d="M40.615 21.9731H39.1945L26.9562 10.6667C27.1874 10.2197 27.3076 9.72492 27.3072 9.22291C27.3061 7.44712 25.8472 6.0088 24.0488 6.00989C22.2504 6.01098 20.7938 7.45149 20.7949 9.22728C20.7945 9.72747 20.9151 10.2207 21.1459 10.666L8.90756 21.9731H7.48704C5.04123 21.9731 3.00391 23.9615 3.00391 26.3765V37.653C3.00391 40.0685 5.04123 42.0099 7.48704 42.0099H40.615C41.7838 42.0121 42.9049 41.553 43.7293 40.7346C44.5533 39.9166 45.0123 38.807 45.0038 37.653V26.3765C45.0038 23.9615 43.0609 21.9731 40.615 21.9731ZM16.0098 35.3956C15.821 35.3956 15.6415 35.3432 15.5379 35.1473L14.2449 32.6904H13.5747V34.8922C13.5747 35.1903 13.2347 35.3396 12.8668 35.3396C12.4989 35.3396 12.1589 35.1903 12.1589 34.8922V28.9652C12.1541 28.8447 12.1984 28.7275 12.2817 28.6394C12.365 28.5513 12.4804 28.5 12.6025 28.4967H14.5561C15.8494 28.4967 16.878 28.987 16.878 30.5062C16.878 31.5499 16.3965 32.1538 15.7359 32.4058L16.8876 34.4691C16.9193 34.5201 16.9355 34.5787 16.9348 34.6388C16.9348 35.0021 16.4437 35.3956 16.0098 35.3956ZM21.4931 31.3857C21.7763 31.3857 21.937 31.6562 21.937 31.9543C21.937 32.2059 21.8047 32.504 21.4931 32.504H20.087V34.0884H22.6069C22.8901 34.0884 23.0504 34.3588 23.0504 34.7036C23.0504 35.0017 22.9185 35.2999 22.6069 35.2999H19.2472C18.926 35.2999 18.5769 35.1903 18.5769 34.8922V28.9743C18.5769 28.6762 18.926 28.4971 19.2472 28.4971H22.6069C22.9185 28.4971 23.0504 28.8418 23.0504 29.1403C23.0504 29.4851 22.8901 29.8018 22.6069 29.8018H20.087V31.3861L21.4931 31.3857ZM29.4308 34.8922C29.4308 35.1903 29.0769 35.3396 28.7089 35.3396C28.369 35.3396 28.0836 35.2744 27.9041 34.9482L26.1274 31.7235V34.8922C26.1274 35.1903 25.7403 35.3392 25.3724 35.3392C25.0044 35.3392 24.6173 35.1903 24.6173 34.8922V28.9743C24.6173 28.6667 24.9949 28.5269 25.3628 28.5269C25.8915 28.5269 26.1086 28.5735 26.4674 29.2539L28.0151 32.1335V28.9648C28.0151 28.6572 28.355 28.5269 28.7229 28.5269C29.0909 28.5269 29.4308 28.6572 29.4308 28.9648V34.8922ZM35.5088 29.8014H34.2443V34.8922C34.2443 35.1903 33.8572 35.3396 33.4892 35.3396C33.1213 35.3396 32.7342 35.1903 32.7342 34.8922V29.8014H31.4316C31.1485 29.8014 30.9881 29.4938 30.9881 29.1399C30.9881 28.8323 31.1201 28.4967 31.4316 28.4967H35.5088C35.8204 28.4967 35.9527 28.8323 35.9527 29.1399C35.9527 29.4938 35.792 29.8014 35.5088 29.8014ZM10.8405 21.9731L21.9724 11.69C23.174 12.6886 24.9296 12.6875 26.1297 11.6871L37.2619 21.9731H10.8405Z" fill="#333333"/>
<path d="M15.076 30.0099H14.0039V32.0099H15.076C15.6535 32.0099 16.0039 31.7467 16.0039 31.0099C16.0039 30.273 15.6535 30.0099 15.076 30.0099Z" fill="#333333"/>
</svg>
