<svg width="1017" height="37" viewBox="0 0 1017 37" fill="none" xmlns="http://www.w3.org/2000/svg">
<path d="M404.383 -31.8532L403.397 -31.6914L404.383 -31.8532ZM192.185 -208.664L191.213 -208.899L192.185 -208.664ZM486.663 -143.446L486.197 -144.331L486.663 -143.446ZM1016.4 -105.351C1016.57 -104.829 1016.29 -104.261 1015.77 -104.083L1007.25 -101.189C1006.73 -101.011 1006.16 -101.291 1005.98 -101.814C1005.8 -102.337 1006.08 -102.905 1006.61 -103.082L1014.18 -105.655L1011.61 -113.23C1011.43 -113.753 1011.71 -114.321 1012.23 -114.499C1012.76 -114.676 1013.32 -114.396 1013.5 -113.873L1016.4 -105.351ZM0.888268 -31.6983C2.71267 -31.0566 4.55956 -30.4116 6.4281 -29.7638L5.77297 -27.8742C3.90165 -28.5229 2.05192 -29.1689 0.224684 -29.8116L0.888268 -31.6983ZM17.7398 -25.8979C21.4582 -24.645 25.2487 -23.3849 29.1047 -22.1209L28.4817 -20.2204C24.6205 -21.4861 20.8249 -22.7479 17.1011 -24.0026L17.7398 -25.8979ZM40.396 -18.4691C44.133 -17.2766 47.9226 -16.0831 51.7595 -14.8914L51.1662 -12.9814C47.3244 -14.1747 43.5299 -15.3697 39.788 -16.5637L40.396 -18.4691ZM63.1849 -11.3904C66.9604 -10.2493 70.7748 -9.11198 74.6235 -7.98076L74.0595 -6.06194C70.2059 -7.19461 66.3866 -8.33335 62.6063 -9.47591L63.1849 -11.3904ZM86.053 -4.6689C89.8559 -3.58278 93.6869 -2.50448 97.5417 -1.43608L97.0075 0.491248C93.1476 -0.578566 89.3117 -1.65825 85.5038 -2.74578L86.053 -4.6689ZM109.061 1.7072C112.881 2.73308 116.72 3.74752 120.573 4.74849L120.07 6.68423C116.211 5.68185 112.367 4.66603 108.542 3.63875L109.061 1.7072ZM132.132 7.69872C135.984 8.6641 139.845 9.6143 143.713 10.5474L143.245 12.4916C139.37 11.5571 135.503 10.6055 131.646 9.63871L132.132 7.69872ZM155.316 13.2893C159.192 14.1861 163.071 15.0639 166.948 15.9208L166.516 17.8737C162.633 17.0154 158.748 16.1361 154.865 15.2378L155.316 13.2893ZM178.591 18.4309C182.496 19.2513 186.396 20.0485 190.286 20.8204L189.897 22.7821C185.999 22.0087 182.092 21.2101 178.18 20.3882L178.591 18.4309ZM201.994 23.0719C205.91 23.8003 209.812 24.5009 213.696 25.1716L213.356 27.1424C209.463 26.4703 205.553 25.7682 201.628 25.0382L201.994 23.0719ZM225.486 27.1231C229.443 27.7489 233.375 28.3407 237.279 28.8963L236.997 30.8763C233.083 30.3192 229.14 29.7258 225.174 29.0985L225.486 27.1231ZM249.058 30.4724C253.044 30.9705 256.994 31.4273 260.902 31.8401L260.692 33.8291C256.77 33.4148 252.808 32.9566 248.81 32.4569L249.058 30.4724ZM272.789 32.9691C276.801 33.3057 280.761 33.5909 284.664 33.8221L284.546 35.8186C280.626 35.5864 276.649 35.2999 272.622 34.9621L272.789 32.9691ZM296.52 34.3607C300.554 34.4854 304.514 34.5451 308.394 34.5363L308.399 36.5363C304.495 36.5451 300.512 36.4851 296.459 36.3597L296.52 34.3607ZM320.322 34.2792C324.39 34.1078 328.353 33.8494 332.199 33.4997L332.381 35.4915C328.499 35.8444 324.504 36.1047 320.406 36.2774L320.322 34.2792ZM343.992 32.0797C348.037 31.4625 351.921 30.7236 355.631 29.8566L356.086 31.8041C352.321 32.6841 348.385 33.4326 344.294 34.0569L343.992 32.0797ZM366.981 26.6065C370.849 25.2667 374.458 23.7452 377.787 22.0329L378.702 23.8115C375.279 25.5719 371.582 27.1295 367.636 28.4964L366.981 26.6065ZM387.68 15.7197C390.816 13.2289 393.544 10.467 395.835 7.4187L397.433 8.62017C395.032 11.8155 392.183 14.6979 388.924 17.2858L387.68 15.7197ZM401.426 -2.75699C402.733 -6.22215 403.625 -9.97219 404.067 -14.0246L406.055 -13.8076C405.596 -9.59812 404.668 -5.68295 403.298 -2.05107L401.426 -2.75699ZM404.148 -25.6933C403.983 -27.6357 403.734 -29.6347 403.397 -31.6914L405.37 -32.015C405.715 -29.9097 405.972 -27.8591 406.141 -25.8622L404.148 -25.6933ZM403.397 -31.6914C403.081 -33.6134 402.743 -35.5253 402.381 -37.4271L404.346 -37.8008C404.711 -35.8825 405.052 -33.9538 405.37 -32.015L403.397 -31.6914ZM399.929 -48.7552C399.013 -52.5291 398.007 -56.2595 396.917 -59.9447L398.835 -60.5121C399.934 -56.7956 400.949 -53.0335 401.873 -49.227L399.929 -48.7552ZM393.354 -70.9897C392.071 -74.6602 390.705 -78.2819 389.262 -81.8533L391.116 -82.6025C392.571 -79.0022 393.948 -75.3507 395.242 -71.6497L393.354 -70.9897ZM384.664 -92.5091C383.041 -96.0407 381.345 -99.5183 379.579 -102.94L381.357 -103.857C383.136 -100.409 384.846 -96.9037 386.481 -93.3441L384.664 -92.5091ZM374.031 -113.13C372.096 -116.502 370.097 -119.814 368.039 -123.064L369.728 -124.134C371.802 -120.86 373.816 -117.523 375.766 -114.125L374.031 -113.13ZM361.623 -132.728C359.402 -135.925 357.125 -139.054 354.799 -142.115L356.392 -143.325C358.734 -140.242 361.028 -137.089 363.266 -133.87L361.623 -132.728ZM347.581 -151.216C345.093 -154.222 342.56 -157.153 339.991 -160.007L341.477 -161.345C344.065 -158.471 346.616 -155.519 349.122 -152.491L347.581 -151.216ZM332.042 -168.474C329.306 -171.269 326.538 -173.978 323.747 -176.6L325.116 -178.058C327.928 -175.417 330.715 -172.688 333.471 -169.873L332.042 -168.474ZM315.115 -184.365C312.143 -186.926 309.153 -189.387 306.155 -191.745L307.392 -193.317C310.413 -190.94 313.425 -188.461 316.421 -185.881L315.115 -184.365ZM296.873 -198.707C293.666 -200.996 290.462 -203.164 287.272 -205.209L288.351 -206.893C291.57 -204.83 294.801 -202.643 298.035 -200.335L296.873 -198.707ZM277.358 -211.193C273.906 -213.147 270.486 -214.948 267.112 -216.591L267.988 -218.389C271.4 -216.727 274.857 -214.907 278.343 -212.933L277.358 -211.193ZM256.496 -221.305C252.768 -222.794 249.124 -224.071 245.586 -225.128L246.158 -227.044C249.758 -225.969 253.459 -224.672 257.238 -223.162L256.496 -221.305ZM234.398 -227.798C230.373 -228.498 226.549 -228.856 222.968 -228.864L222.973 -230.864C226.682 -230.856 230.62 -230.485 234.741 -229.769L234.398 -227.798ZM211.691 -227.505C207.847 -226.466 204.494 -224.829 201.702 -222.582L200.448 -224.14C203.484 -226.584 207.096 -228.335 211.169 -229.436L211.691 -227.505ZM194.967 -213.773C194.229 -212.138 193.622 -210.358 193.157 -208.43L191.213 -208.899C191.705 -210.94 192.351 -212.839 193.144 -214.596L194.967 -213.773ZM193.157 -208.43C192.689 -206.485 192.319 -204.492 192.049 -202.458L190.067 -202.72C190.345 -204.822 190.727 -206.884 191.213 -208.899L193.157 -208.43ZM191.612 -190.313C191.829 -186.359 192.386 -182.322 193.288 -178.251L191.335 -177.819C190.411 -181.992 189.838 -186.137 189.615 -190.203L191.612 -190.313ZM196.806 -166.565C198.229 -162.837 199.941 -159.121 201.944 -155.454L200.189 -154.495C198.143 -158.24 196.393 -162.038 194.938 -165.852L196.806 -166.565ZM208.467 -145.139C210.811 -141.9 213.401 -138.733 216.24 -135.666L214.773 -134.307C211.879 -137.433 209.238 -140.662 206.846 -143.966L208.467 -145.139ZM225.041 -127.19C228.073 -124.583 231.314 -122.083 234.767 -119.712L233.635 -118.063C230.123 -120.475 226.824 -123.019 223.737 -125.674L225.041 -127.19ZM245.203 -113.308C248.699 -111.399 252.37 -109.612 256.217 -107.965L255.43 -106.127C251.525 -107.798 247.797 -109.613 244.245 -111.553L245.203 -113.308ZM267.701 -103.651C271.496 -102.412 275.438 -101.3 279.527 -100.329L279.065 -98.3832C274.923 -99.3669 270.929 -100.493 267.08 -101.749L267.701 -103.651ZM291.586 -97.95C295.531 -97.3235 299.597 -96.8209 303.785 -96.4512L303.609 -94.459C299.376 -94.8326 295.264 -95.3409 291.272 -95.9747L291.586 -97.95ZM316.053 -95.7654C320.047 -95.6671 324.142 -95.6846 328.336 -95.8246L328.403 -93.8257C324.171 -93.6845 320.038 -93.6668 316.004 -93.766L316.053 -95.7654ZM340.601 -96.5645C344.594 -96.9101 348.67 -97.3626 352.829 -97.927L353.098 -95.9451C348.907 -95.3765 344.799 -94.9204 340.774 -94.572L340.601 -96.5645ZM365.015 -99.8619C368.994 -100.583 373.043 -101.404 377.164 -102.328L377.602 -100.376C373.454 -99.4467 369.378 -98.6206 365.372 -97.894L365.015 -99.8619ZM389.052 -105.229C392.936 -106.253 396.88 -107.366 400.883 -108.571L401.46 -106.656C397.435 -105.444 393.469 -104.325 389.562 -103.295L389.052 -105.229ZM412.693 -112.336C416.507 -113.619 420.373 -114.983 424.29 -116.431L424.983 -114.555C421.048 -113.1 417.164 -111.729 413.331 -110.44L412.693 -112.336ZM435.758 -120.851C439.546 -122.371 443.38 -123.967 447.26 -125.642L448.053 -123.805C444.157 -122.124 440.307 -120.521 436.502 -118.995L435.758 -120.851ZM458.409 -130.612C462.102 -132.31 465.835 -134.078 469.608 -135.918L470.485 -134.12C466.698 -132.274 462.952 -130.5 459.245 -128.795L458.409 -130.612ZM480.611 -141.426C482.464 -142.377 484.326 -143.346 486.197 -144.331L487.129 -142.561C485.252 -141.573 483.384 -140.601 481.525 -139.647L480.611 -141.426ZM486.197 -144.331C487.961 -145.26 489.732 -146.171 491.511 -147.065L492.409 -145.278C490.642 -144.39 488.881 -143.484 487.129 -142.561L486.197 -144.331ZM502.273 -152.224C505.895 -153.878 509.545 -155.465 513.222 -156.986L513.987 -155.137C510.332 -153.626 506.704 -152.049 503.104 -150.405L502.273 -152.224ZM524.33 -161.352C528.057 -162.742 531.809 -164.069 535.583 -165.332L536.218 -163.436C532.465 -162.179 528.734 -160.861 525.029 -159.478L524.33 -161.352ZM546.958 -168.933C550.768 -170.07 554.598 -171.147 558.447 -172.165L558.958 -170.232C555.129 -169.219 551.319 -168.148 547.531 -167.016L546.958 -168.933ZM570.029 -175.039C573.898 -175.938 577.784 -176.779 581.686 -177.565L582.081 -175.604C578.198 -174.822 574.331 -173.985 570.481 -173.091L570.029 -175.039ZM593.418 -179.756C597.332 -180.431 601.259 -181.052 605.198 -181.622L605.484 -179.642C601.563 -179.075 597.653 -178.457 593.757 -177.785L593.418 -179.756ZM617.023 -183.175C620.97 -183.641 624.926 -184.058 628.89 -184.427L629.075 -182.436C625.127 -182.068 621.188 -181.653 617.258 -181.188L617.023 -183.175ZM640.773 -185.389C644.736 -185.663 648.706 -185.89 652.68 -186.073L652.771 -184.075C648.813 -183.893 644.858 -183.666 640.91 -183.394L640.773 -185.389ZM664.599 -186.489C668.571 -186.584 672.545 -186.636 676.52 -186.647L676.526 -184.647C672.564 -184.636 668.604 -184.584 664.647 -184.489L664.599 -186.489ZM688.444 -186.557C692.418 -186.487 696.391 -186.377 700.362 -186.229L700.287 -184.23C696.33 -184.378 692.37 -184.487 688.409 -184.557L688.444 -186.557ZM712.273 -185.672C716.242 -185.448 720.207 -185.188 724.166 -184.893L724.017 -182.899C720.07 -183.193 716.117 -183.452 712.16 -183.675L712.273 -185.672ZM736.047 -183.902C740.01 -183.536 743.965 -183.137 747.911 -182.705L747.693 -180.717C743.759 -181.147 739.815 -181.546 735.864 -181.91L736.047 -183.902ZM759.738 -181.311C763.691 -180.812 767.633 -180.282 771.562 -179.722L771.28 -177.742C767.362 -178.3 763.43 -178.829 759.487 -179.326L759.738 -181.311ZM783.349 -177.949C787.28 -177.327 791.195 -176.676 795.092 -175.998L794.75 -174.028C790.862 -174.704 786.957 -175.353 783.037 -175.973L783.349 -177.949ZM806.837 -173.867C810.754 -173.126 814.652 -172.36 818.528 -171.569L818.129 -169.609C814.262 -170.398 810.373 -171.163 806.465 -171.902L806.837 -173.867ZM830.173 -169.108C834.08 -168.254 837.963 -167.376 841.82 -166.477L841.366 -164.529C837.518 -165.426 833.644 -166.302 829.746 -167.154L830.173 -169.108ZM853.403 -163.693C857.274 -162.735 861.117 -161.756 864.927 -160.759L864.421 -158.824C860.619 -159.819 856.785 -160.796 852.922 -161.752L853.403 -163.693ZM876.466 -157.657C880.326 -156.593 884.149 -155.51 887.934 -154.412L887.377 -152.491C883.6 -153.587 879.785 -154.667 875.934 -155.729L876.466 -157.657ZM899.324 -151.028C903.169 -149.858 906.97 -148.674 910.724 -147.477L910.117 -145.572C906.371 -146.765 902.578 -147.947 898.742 -149.114L899.324 -151.028ZM922.075 -143.778C925.888 -142.508 929.646 -141.227 933.348 -139.939L932.691 -138.05C928.997 -139.335 925.247 -140.613 921.443 -141.881L922.075 -143.778ZM944.541 -135.958C948.337 -134.579 952.065 -133.195 955.722 -131.808L955.013 -129.938C951.364 -131.321 947.645 -132.703 943.858 -134.078L944.541 -135.958ZM966.865 -127.491C970.64 -125.996 974.33 -124.502 977.928 -123.013L977.164 -121.165C973.575 -122.65 969.895 -124.14 966.128 -125.631L966.865 -127.491ZM988.911 -118.365C992.663 -116.741 996.298 -115.127 999.812 -113.53L998.984 -111.71C995.482 -113.302 991.857 -114.91 988.117 -116.53L988.911 -118.365ZM1010.62 -108.488C1012.42 -107.627 1014.18 -106.773 1015.89 -105.927L1015.01 -104.133C1013.3 -104.976 1011.55 -105.827 1009.76 -106.684L1010.62 -108.488Z" fill="#F0C244"/>
</svg>
