<svg width="46" height="1018" viewBox="0 0 46 1018" fill="none" xmlns="http://www.w3.org/2000/svg">
<path d="M66.7476 404.376L66.6063 403.386L66.7476 404.376ZM247.915 195.884L248.169 194.917L247.915 195.884ZM176.613 488.948L177.507 488.501L176.613 488.948ZM127.557 1017.78C127.031 1017.95 126.469 1017.65 126.302 1017.13L123.585 1008.55C123.418 1008.02 123.71 1007.46 124.236 1007.29C124.763 1007.13 125.325 1007.42 125.492 1007.94L127.907 1015.57L135.534 1013.16C136.06 1012.99 136.622 1013.28 136.789 1013.81C136.956 1014.33 136.664 1014.9 136.138 1015.06L127.557 1017.78ZM74.9477 0.963988C74.2684 2.77466 73.5853 4.6078 72.899 6.46252L71.0233 5.76841C71.7106 3.91092 72.3947 2.07497 73.0752 0.261431L74.9477 0.963988ZM68.7997 17.6918C67.47 21.3835 66.1317 25.147 64.7881 28.9761L62.901 28.3138C64.2464 24.4796 65.5864 20.7109 66.918 17.014L68.7997 17.6918ZM60.9033 40.1892C59.6336 43.9008 58.362 47.6648 57.091 51.4762L55.1937 50.8436C56.4663 47.0273 57.7396 43.2583 59.0109 39.5419L60.9033 40.1892ZM53.3542 62.8267C52.1352 66.5778 50.9192 70.3678 49.7085 74.1923L47.8018 73.5887C49.014 69.7593 50.2316 65.9644 51.4521 62.2086L53.3542 62.8267ZM46.1607 85.5507C44.996 89.3304 43.8386 93.1382 42.6907 96.97L40.7748 96.396C41.9243 92.5592 43.0832 88.7463 44.2493 84.9618L46.1607 85.5507ZM39.3095 108.422C38.2047 112.22 37.1111 116.037 36.0305 119.869L34.1056 119.326C35.1876 115.488 36.2828 111.666 37.3891 107.863L39.3095 108.422ZM32.8415 131.364C31.7966 135.194 30.7667 139.036 29.7537 142.884L27.8196 142.375C28.8341 138.521 29.8656 134.674 30.912 130.838L32.8415 131.364ZM26.7721 154.427C25.7952 158.284 24.8373 162.144 23.9003 166.002L21.9568 165.53C22.8954 161.665 23.8549 157.799 24.8333 153.936L26.7721 154.427ZM21.1497 177.591C20.2486 181.478 19.3708 185.36 18.5185 189.233L16.5653 188.804C17.4193 184.923 18.2986 181.033 19.2013 177.139L21.1497 177.591ZM16.0251 200.893C15.2157 204.793 14.4345 208.68 13.6835 212.549L11.7202 212.167C12.4728 208.29 13.2557 204.395 14.0668 200.486L16.0251 200.893ZM11.4883 224.296C10.7808 228.238 10.1077 232.158 9.47131 236.049L7.49751 235.726C8.13562 231.824 8.81047 227.895 9.5198 223.942L11.4883 224.296ZM7.65166 247.793C7.07107 251.768 6.53266 255.707 6.03892 259.606L4.05479 259.355C4.55017 255.443 5.09034 251.491 5.67266 247.504L7.65166 247.793ZM4.66406 271.467C4.24453 275.472 3.87731 279.425 3.56537 283.322L1.57175 283.163C1.88506 279.248 2.2538 275.279 2.67493 271.259L4.66406 271.467ZM2.78142 295.165C2.57324 299.195 2.43155 303.153 2.35997 307.032L0.360315 306.995C0.432322 303.092 0.574822 299.112 0.784081 295.062L2.78142 295.165ZM2.37007 318.963C2.45719 323.034 2.63341 327.001 2.90343 330.854L0.908327 330.994C0.635871 327.106 0.458273 323.107 0.370521 319.005L2.37007 318.963ZM4.07889 342.674C4.61219 346.731 5.2706 350.629 6.06053 354.356L4.104 354.771C3.30222 350.988 2.63534 347.038 2.09595 342.934L4.07889 342.674ZM9.07495 365.771C10.3343 369.666 11.7808 373.306 13.4238 376.67L11.6267 377.547C9.93751 374.089 8.45685 370.36 7.17195 366.386L9.07495 365.771ZM19.5308 386.691C21.9561 389.878 24.661 392.662 27.6612 395.016L26.4269 396.589C23.282 394.123 20.4592 391.214 17.9393 387.903L19.5308 386.691ZM37.7189 400.817C41.1563 402.195 44.8871 403.164 48.9294 403.69L48.6713 405.673C44.4723 405.127 40.5772 404.118 36.9744 402.673L37.7189 400.817ZM60.5939 404.013C62.5393 403.889 64.543 403.68 66.6063 403.386L66.8889 405.366C64.777 405.667 62.7215 405.881 60.7216 406.009L60.5939 404.013ZM66.6063 403.386C68.5344 403.111 70.4529 402.811 72.3618 402.489L72.6948 404.461C70.7693 404.786 68.834 405.088 66.8889 405.366L66.6063 403.386ZM83.7382 400.273C87.5303 399.435 91.2807 398.506 94.9877 397.493L95.5153 399.422C91.7769 400.444 87.9945 401.38 84.1697 402.225L83.7382 400.273ZM106.104 394.159C109.8 392.952 113.45 391.662 117.05 390.293L117.761 392.162C114.131 393.542 110.452 394.843 106.725 396.06L106.104 394.159ZM127.799 385.916C131.363 384.367 134.875 382.743 138.333 381.049L139.213 382.845C135.728 384.552 132.189 386.189 128.596 387.75L127.799 385.916ZM148.636 375.713C152.047 373.848 155.399 371.918 158.691 369.927L159.726 371.639C156.41 373.644 153.032 375.589 149.595 377.468L148.636 375.713ZM168.486 363.714C171.728 361.559 174.904 359.347 178.013 357.086L179.19 358.703C176.058 360.981 172.859 363.208 169.594 365.379L168.486 363.714ZM187.261 350.057C190.318 347.632 193.301 345.16 196.207 342.65L197.514 344.164C194.587 346.692 191.583 349.181 188.504 351.624L187.261 350.057ZM204.837 334.879C207.688 332.201 210.454 329.49 213.133 326.754L214.562 328.153C211.864 330.909 209.078 333.64 206.206 336.336L204.837 334.879ZM221.075 318.285C223.697 315.366 226.219 312.428 228.639 309.48L230.185 310.749C227.746 313.719 225.205 316.68 222.563 319.621L221.075 318.285ZM235.792 300.343C238.147 297.184 240.381 294.026 242.491 290.879L244.152 291.993C242.023 295.168 239.77 298.354 237.395 301.538L235.792 300.343ZM248.679 281.091C250.704 277.68 252.576 274.298 254.289 270.959L256.068 271.872C254.336 275.249 252.444 278.668 250.398 282.112L248.679 281.091ZM259.221 260.443C260.787 256.747 262.139 253.13 263.269 249.614L265.173 250.226C264.023 253.803 262.65 257.476 261.062 261.223L259.221 260.443ZM266.17 238.485C266.954 234.474 267.391 230.659 267.473 227.079L269.473 227.125C269.387 230.834 268.935 234.762 268.133 238.868L266.17 238.485ZM266.348 215.776C265.389 211.911 263.821 208.525 261.632 205.687L263.216 204.466C265.596 207.552 267.272 211.199 268.289 215.294L266.348 215.776ZM252.965 198.771C251.345 198 249.579 197.356 247.66 196.851L248.169 194.917C250.2 195.451 252.085 196.137 253.825 196.966L252.965 198.771ZM247.66 196.851C245.726 196.342 243.74 195.932 241.712 195.62L242.016 193.643C244.111 193.965 246.165 194.39 248.169 194.917L247.66 196.851ZM229.579 194.931C225.622 195.066 221.574 195.54 217.485 196.357L217.094 194.396C221.285 193.558 225.441 193.071 229.51 192.932L229.579 194.931ZM205.729 199.633C201.972 200.978 198.221 202.612 194.513 204.539L193.591 202.764C197.378 200.796 201.212 199.126 205.054 197.75L205.729 199.633ZM184.066 210.847C180.779 213.123 177.559 215.648 174.434 218.423L173.106 216.927C176.291 214.099 179.574 211.525 182.927 209.203L184.066 210.847ZM165.778 227.046C163.109 230.023 160.542 233.212 158.099 236.615L156.474 235.449C158.959 231.987 161.571 228.742 164.289 225.711L165.778 227.046ZM151.481 246.917C149.5 250.372 147.638 254.005 145.912 257.818L144.09 256.993C145.842 253.123 147.733 249.433 149.746 245.922L151.481 246.917ZM141.36 269.209C140.042 272.978 138.85 276.896 137.794 280.964L135.858 280.462C136.928 276.341 138.136 272.371 139.472 268.549L141.36 269.209ZM135.166 292.971C134.458 296.903 133.871 300.957 133.415 305.137L131.427 304.919C131.888 300.695 132.481 296.594 133.198 292.616L135.166 292.971ZM132.475 317.387C132.294 321.379 132.227 325.473 132.28 329.67L130.28 329.695C130.227 325.46 130.294 321.328 130.477 317.297L132.475 317.387ZM132.766 341.947C133.029 345.946 133.397 350.031 133.875 354.201L131.888 354.429C131.406 350.227 131.035 346.11 130.77 342.079L132.766 341.947ZM135.557 366.424C136.196 370.417 136.933 374.483 137.771 378.622L135.811 379.019C134.967 374.853 134.226 370.761 133.582 366.741L135.557 366.424ZM140.425 390.567C141.369 394.472 142.4 398.437 143.521 402.465L141.595 403.002C140.467 398.952 139.43 394.964 138.481 391.037L140.425 390.567ZM147.041 414.351C148.244 418.19 149.528 422.083 150.895 426.029L149.005 426.683C147.632 422.719 146.342 418.807 145.132 414.949L147.041 414.351ZM155.077 437.586C156.518 441.405 158.034 445.271 159.628 449.185L157.776 449.94C156.176 446.01 154.653 442.127 153.206 438.292L155.077 437.586ZM164.367 460.435C165.988 464.162 167.678 467.931 169.439 471.741L167.624 472.58C165.857 468.756 164.16 464.974 162.533 461.233L164.367 460.435ZM174.718 482.856C175.631 484.728 176.561 486.61 177.507 488.501L175.719 489.396C174.769 487.499 173.837 485.611 172.921 483.733L174.718 482.856ZM177.507 488.501C178.399 490.283 179.274 492.073 180.131 493.87L178.325 494.731C177.474 492.946 176.605 491.167 175.719 489.396L177.507 488.501ZM185.066 504.737C186.644 508.393 188.155 512.075 189.6 515.782L187.736 516.508C186.3 512.823 184.799 509.163 183.229 505.53L185.066 504.737ZM193.735 526.978C195.048 530.733 196.296 534.512 197.482 538.312L195.572 538.907C194.394 535.128 193.152 531.371 191.847 527.638L193.735 526.978ZM200.846 549.759C201.904 553.591 202.902 557.442 203.84 561.312L201.896 561.783C200.963 557.934 199.971 554.103 198.918 550.291L200.846 549.759ZM206.473 572.951C207.291 576.838 208.052 580.741 208.757 584.658L206.789 585.012C206.087 581.114 205.33 577.23 204.516 573.362L206.473 572.951ZM210.705 596.432C211.298 600.359 211.838 604.299 212.326 608.248L210.341 608.493C209.855 604.561 209.318 600.64 208.727 596.731L210.705 596.432ZM213.634 620.103C214.018 624.058 214.354 628.023 214.64 631.993L212.645 632.138C212.36 628.183 212.026 624.235 211.643 620.297L213.634 620.103ZM215.356 643.894C215.547 647.862 215.692 651.835 215.793 655.812L213.794 655.863C213.693 651.901 213.549 647.943 213.358 643.99L215.356 643.894ZM215.962 667.738C215.975 671.71 215.944 675.685 215.873 679.66L213.873 679.624C213.944 675.663 213.975 671.703 213.962 667.744L215.962 667.738ZM215.536 691.579C215.384 695.551 215.192 699.521 214.962 703.487L212.965 703.371C213.195 699.418 213.386 695.461 213.538 691.503L215.536 691.579ZM214.158 715.384C213.852 719.348 213.51 723.307 213.133 727.259L211.142 727.069C211.518 723.129 211.859 719.182 212.164 715.231L214.158 715.384ZM211.896 739.117C211.448 743.072 210.967 747.018 210.454 750.953L208.47 750.694C208.982 746.77 209.462 742.835 209.909 738.892L211.896 739.117ZM208.815 762.749C208.234 766.691 207.623 770.621 206.982 774.538L205.008 774.215C205.647 770.309 206.257 766.389 206.836 762.457L208.815 762.749ZM204.965 786.286C204.261 790.202 203.53 794.103 202.772 797.986L200.809 797.602C201.565 793.729 202.295 789.839 202.996 785.932L204.965 786.286ZM200.397 809.684C199.576 813.585 198.729 817.466 197.858 821.325L195.907 820.885C196.776 817.035 197.621 813.163 198.44 809.272L200.397 809.684ZM195.157 832.916C194.222 836.805 193.264 840.669 192.285 844.506L190.347 844.012C191.324 840.183 192.279 836.328 193.212 832.448L195.157 832.916ZM189.262 856.029C188.224 859.88 187.166 863.701 186.09 867.49L184.166 866.943C185.239 863.163 186.295 859.35 187.331 855.508L189.262 856.029ZM182.75 878.962C181.605 882.799 180.444 886.599 179.268 890.361L177.359 889.764C178.532 886.011 179.691 882.219 180.833 878.39L182.75 878.962ZM175.648 901.678C174.399 905.498 173.136 909.273 171.863 913.002L169.97 912.355C171.241 908.635 172.501 904.868 173.747 901.056L175.648 901.678ZM167.929 924.274C166.58 928.059 165.222 931.791 163.857 935.465L161.982 934.769C163.344 931.103 164.699 927.38 166.045 923.602L167.929 924.274ZM159.645 946.574C158.188 950.339 156.727 954.038 155.265 957.666L153.41 956.918C154.869 953.299 156.326 949.609 157.78 945.852L159.645 946.574ZM150.718 968.717C149.145 972.461 147.575 976.118 146.012 979.685L144.18 978.882C145.739 975.325 147.305 971.677 148.874 967.942L150.718 968.717ZM141.137 990.57C139.436 994.287 137.747 997.888 136.078 1001.37L134.275 1000.5C135.939 997.034 137.622 993.443 139.319 989.737L141.137 990.57ZM130.813 1012.07C129.915 1013.85 129.025 1015.59 128.143 1017.29L126.368 1016.37C127.246 1014.67 128.133 1012.94 129.027 1011.17L130.813 1012.07Z" fill="#F0C244"/>
</svg>
