<svg width="49" height="48" viewBox="0 0 49 48" fill="none" xmlns="http://www.w3.org/2000/svg">
<rect x="0.535217" width="48" height="48" rx="24" fill="#333333"/>
<path d="M29.87 29.6252H19.2004C17.8007 29.6252 16.6661 28.4905 16.6661 27.0908V20.9091C16.6661 19.5094 17.8007 18.3748 19.2004 18.3748H29.87C31.2697 18.3748 32.4043 19.5094 32.4043 20.9091V27.0909C32.4043 28.4905 31.2697 29.6252 29.87 29.6252Z" fill="white"/>
<path d="M29.871 18.3745H28.921C30.3201 18.3745 31.4543 19.5096 31.4543 20.9098V27.0896C31.4543 28.4898 30.3201 29.6249 28.921 29.6249H29.871C31.2702 29.6249 32.4044 28.4898 32.4044 27.0896V20.9098C32.4044 19.5096 31.2702 18.3745 29.871 18.3745Z" fill="white"/>
<path d="M22.6527 21.7952V26.2035C22.6527 26.4968 22.9728 26.6777 23.2238 26.5262L26.875 24.3221C27.1178 24.1755 27.1178 23.8232 26.875 23.6766L23.2238 21.4725C22.9728 21.321 22.6527 21.5019 22.6527 21.7952Z" fill="#333333"/>
</svg>
